<svg id="svgzoom" xmlns="http://www.w3.org/2000/svg" xmlns:xlink="http://www.w3.org/1999/xlink" xmlns:attrib="http://www.carto.net/attrib/" width="100%" height="100%" viewBox="78742.3 -584111.1 478020.8 632482.1">
<script type="text/javascript"><![CDATA[

document.onmousemove = makeZoom;
window.onload = function() {
	svgDoc = document.firstChild;
	var rangeText = svgDoc.getAttribute("viewBox");
	viewBox = rangeText.split(" ");
}


function changeViewBox(coord, scale) {
	var width = svgDoc.clientWidth;
	var height = svgDoc.clientHeight;
	for (var i=0; i<viewBox.length; i++) {
		viewBox[i] = parseFloat(viewBox[i]);
	}
	var clipX = viewBox[0] + (1 - 1/scale) * viewBox[2] * (coord[0] / width);
	var clipY = viewBox[1] + (1 - 1/scale) * viewBox[3] * (coord[1] / height);
	var clipW = viewBox[2]/scale;
	var clipH = viewBox[3]/scale;

	var newViewBox =
		parseInt(clipX) + " " +
		parseInt(clipY) + " " +
		parseInt(clipW) + " " +
		parseInt(clipH);

	svgDoc.setAttribute("viewBox", newViewBox);
}

function fixXY(coord) {
	var range = viewBox;
	var width = svgDoc.clientWidth;
	var height = svgDoc.clientHeight;

	for (var i=0; i<range.length; i++) {
		range[i] = parseFloat(range[i]);
	}
	
	var x = range[0] + range[2] * coord[0] / width;
	var y = range[1] + range[3] * coord[1] / height;

	var result = [];
	result.push(parseInt(x));
	result.push(parseInt(y));

	return result;
}

function makeZoom(e) {
	var svgns = "http://www.w3.org/2000/svg";
	var coordinate = getCursorXY(e);
	changeViewBox(coordinate, 2);
	var svgCoordinate = fixXY(coordinate);
	
	var zoom_circle = document.getElementsByClassName("zoom_circle");
	for (var i = 0 ; i < zoom_circle.length ; i++) {
		zoom_circle[i].setAttributeNS(null, 'cx', svgCoordinate[0]);
		zoom_circle[i].setAttributeNS(null, 'cy', svgCoordinate[1]);
	}
}

function getCursorXY(e) {
	var x = (window.Event) ? e.pageX : event.clientX + (document.documentElement.scrollLeft ? document.documentElement.scrollLeft : document.body.scrollLeft);

	var y = (window.Event) ? e.pageY : event.clientY + (document.documentElement.scrollTop ? document.documentElement.scrollTop : document.body.scrollTop);

	document.getElementById('cursorX').firstChild.nodeValue = x;
	document.getElementById('cursorY').firstChild.nodeValue = y;

	var result = [];
	result.push(x);
	result.push(y);
	return result;
}

]]></script>
<defs>

<mask id="circClip" >
	<circle id="zoom-mask" class="zoom_circle" cx="100000" cy="0" r="50000" fill="white"/>
</mask>
</defs>


<g id="zoommap" style="mask: url(#circClip);" >
	<circle id="zoom-back" class="zoom_circle" cx="100000" cy="0" r="50000" fill="rgb(240,240,240)"/>
	<text id="cursorX" x="400000" y="-30000" font-size="10000">X좌표</text>
	<text id="cursorY" x="440000" y="-30000" font-size="10000">Y좌표</text>
<g id="zoomregions" fill-opacity='0' fill="beige" stroke="black" stroke-width='400' stroke-linecap="round" stroke-linejoin="round">
	<path id="zoomregion_0" regionname="광역" d="M177888.7 -195477.7l2579.2 4018.8l4570.2 -755l3926.8 -2482.2l4587.7 -44.1l3519.8 7877.9l4367.2 173.6l-560.1 5059.8l-1175 2130.5l-4172.6 4607.2l-2971.5 -2054.2l-2478.4 1481l-6848.4 2875.4l-4205.5 -1985.2l-3535.6 -4863.7l-6997.1 -166.4l-161 -8584.6l6129.3 -2603.2l3425 -4685.5z M357418.5 -275856.9l1648.8 11570l-3217 1029.1l-3806 7527.7l1154.9 5088.5l-4961 4291.2l-2771 -3627.6l-6507.2 2590.7l-849.9 3819.6l-2396 4901.5l-11585.4 3208.6l2867.2 -3454.4l-4791 -6713.5l7399.1 -70.6l-4360.4 -6501.5l3092.9 -5346.7l5384.2 -980.8l-910.9 -1678.9l-7306.1 -1821.8l276.1 -3629.9l5328.4 -6747.4l4631.4 5762l2069.3 -10004.2l2406.2 1674l4348.5 -2681.4l1122.2 -1623.5l2153 -876.1l4914.9 -721.4l3645 2532.7l1019.7 2484.1z M236020.6 -328378.5l4538 600.7l2756.7 -3066.9l480.5 4981.6l1885.4 3273.9l491.2 -2130.9l3473.8 3039.7l-4716.8 6242.5l-705.2 11168.7l-3967.1 4658.9l-2347.5 -1322.7l-3169.4 -4576.3l-1349.7 -2494.5l-1889.1 6991.6l-1760.2 2771.4l-4817.8 -6615.2l1224.4 -2236.4l-3807.9 -2124.3l911.7 -4860.6l1682.2 -6752l936.6 -3481.4l4610.7 -1304l5374.8 -6286l164.8 3522.1z M369494.6 -175491.4l-2721.9 8506.4l-2934.4 -7259.3l3680.4 -2412l1975.9 1164.9zM388544 -179392l2287.5 4864.5l-5426.2 -3937.4l3138.7 -927.1zM405761.1 -212018.5l3691.7 6206.5l-3520.2 1269.2l-4905.4 15277.1l-2342.4 3134.4l-4458.2 -676.5l-1864.5 2928.8l1345.8 3855.6l-2785.2 233.5l-2742 -3328.5l-2014.5 2139.8l-545.2 1700l-927.1 0l-7.3 852.5l-1506.2 4188l-433.5 -3087.9l-1044.8 -581.3l594.5 3892.1l-2398.7 -832.9l882.3 967.6l-1145.3 54.9l-448.2 1301.9l-2694.8 -8108.8l-2862.5 2943.8l-437.2 -3980.5l-1579 6601.5l-5480.1 -4200.7l1806.9 -1626l-4581.1 -4788l7276.2 610.9l854.3 -7046.6l10286.8 -2499.7l1278.6 -4343.2l3438.7 -822.9l5250.7 -2887l1900.8 -6766.4l4448.7 1279l2002.4 -3887.5l5665 27.3z M201328 -466510.8l3081.3 1553.3l2732.4 -1040.3l2599.1 5987.1l-477.8 2395.5l175.4 38.5l-591.8 5208.9l1075.3 1467l4558.2 -2136.6l1671.2 3736.7l-3401.7 3215.4l-34.5 -5.6l-305.6 1277.6l-99.9 3523.6l-826.9 644.9l-164.3 -0l-569.1 299.8l-489.7 735.3l-101.4 -0l-1706.4 -313l-1978.6 2702l-20.3 -0l-1882.3 956.8l-6.9 -0l-432.1 -263.6l-2770.4 -2718.1l-2437.6 -307.1l-2258.1 1894.4l-3039.7 -1015.3l-2502 1422l-1265.5 -2184.2l-1006.1 -3148.4l-3657.4 935.2l-1223.6 -376.6l468.2 -3108.6l-227.3 -3595.1l-2434.5 541.6l-2372.7 -2051.5l2300.9 -3037.5l1000 -2485.9l4658.9 3269.2l2165.5 -1805.5l1731.9 -1992.2l316.3 -4433l5.6 0l3697.1 -1116.2l2159.2 2958.4l290.3 99.9l294 -273.4l21 0l528.2 -301.2l30.1 -1045.8l598.1 -3715.7l1460.4 -578.5l666 -1814.5z M211599.7 -356525.8l3137.4 -2638.7l10718.5 4718.5l1958.4 1424.6l-2738.8 4394.6l2197.2 6243.3l5198.9 3511l3402.4 1735.7l382.2 5236.2l-5374.8 6286l-4610.7 1304l-4946.5 -22.3l-3201 -6692.9l1195.7 -5936.8l16 -4982.3l-5537.9 -4649.7l1173.7 -6743l-2970.7 -3188.1z M404133.7 -242407.1l3736.7 1710.6l2618.4 -1834l2976.6 -2232l8356 2991.3l831.2 4264.7l-361.2 4415.3l-377.3 6305.9l-3186.8 5056.1l-1855.7 -3077.6l-2603.9 -606.7l2496 1890.4l-2133.2 3502.9l-2770.1 -2796.7l2875.4 13392.6l-5283.2 3612.3l-3691.7 -6206.5l-5665 -27.3l-716.7 -5708.7l-2783.1 877.5l-5526 -6897l-10235.7 -3530.3l-2210.7 -3469.2l4419 -2744.3l-1611.4 -3918.3l3914.5 -3411.8l2452.9 1065.7l-560.3 -2008.1l1503.4 -4744.6l8580.6 -2675.1l6916.1 2403.1l-105 4399.9z M142157.1 -417829.6l-2588.9 1791.8l-3167.9 -3028.8l5756.8 1237zM155536.3 -418036.6l-3422.8 4251.6l-2503.6 -1196.6l2153.3 -5506.2l3773.2 2451.3zM150992.6 -415065.4l41.1 24.1l18.5 -75l-59.5 50.9zM150371.6 -430629.5l-2176.1 1270.7l-1579.7 -2889.3l1529 -2243.3l2226.9 3861.8zM162999.5 -443087.1l-12416.6 7523.2l-6963.2 -2302.7l-364 -3589.4l5263.5 -2586l5041.7 -252.2l1652 -902.4l339.3 -2289.3l7447.4 4398.8zM149251.8 -449747.1l4092.2 1997.4l-239.8 2079.9l-3574.9 -438.2l148.2 -1677.7l-1379.2 910.5l953.5 -2872zM151354 -446455.5l-87.9 269l66.2 -120.4l21.7 -148.5zM151259.4 -446189.8l-134.2 -9.9l-180.9 2.8l315.2 7.2zM150924 -446196.3l-115.4 -68.9l79.2 59l36.2 9.9zM143754.5 -448236.2l-3388.5 1299l-1672.1 -4149.7l5060.6 2850.8zM175654.2 -454445.8l2353.6 1386.1l3697.8 -216.6l-2300.9 3037.5l-660.3 3338.2l-1594.7 3947.4l2235 1862.8l922.3 -2.8l-646.2 4122.6l-3059.9 4345.1l-6090.3 327.5l-2982.3 -3158l67.8 -1148.2l-269.3 -1221.3l-3420.2 61.2l-39.2 -2600.4l2884.6 642l-2597.1 -1429.3l1880.2 -1295.1l2466.7 -1149.9l-2527.8 -3227.7l4353.7 -1605.2l-5494.9 760.4l-833.5 -3195.4l-1820.1 -3163.6l7070.7 -5731.3l6404.1 5313.8zM134379.8 -461405.8l236.7 3357.3l-3309.5 -3585.4l3072.8 228zM145203.6 -464603l-4345.8 4490l702.1 -2801.5l-6194 -4889.8l4987.2 -4833.9l-325.8 4234.8l5176.4 3800.4zM141384.3 -477584.4l-8903.5 5030l-2792.9 -1831.9l3127.7 -5279l8568.7 2080.8zM159967.6 -455929.7l-2763 2797l-12900.6 -3662.3l3118.8 -4306.6l-1589.2 -558.6l9.1 -3835.1l-3821 -3391.8l391 -7490.3l7922.2 -4735.6l7816.5 10381.8l211.4 9448.7l1604.7 5352.8z" />
	<path id="zoomregion_1" regionname="강원" d="M318224 -569052l20477.2 42515.8l2255.9 7743.1l18137.4 26619.6l22510.5 26725l1387.3 7459.1l8009.5 14183.3l17379.7 24952.8l1594 11288.9l-8109.3 3460l-4009.2 4936.3l1246.9 3794.4l-4737.6 -235.4l-8119.4 -6300.1l-2934.3 3909l-10761.3 -3043.2l-2772.7 3211.8l-3241.9 2538.2l-8369.8 -5138.8l-1488.4 6366.1l-4704.5 -358.3l-5096.4 -2821.9l-14514.4 -6132.5l-5774 2360.8l-3802.2 -6394.5l-2083.4 1199.8l-5413 1827.1l-3022.2 -2882.2l5994 -6276l-5736.7 993.2l-6018.6 -4444.8l-3240 3984.9l-3354.2 -2362.4l-6976.4 5181.5l-3619.6 -6924.3l-6850.6 2115.1l-269.2 7561.6l-12123.6 2415.3l-3758.6 -7991.6l892.8 -16696.7l3684.1 -7610.3l-3817 -7552.3l7915.9 -5564.2l-4985.2 -3534.6l-7531.1 -49.6l-8957.9 -7111.6l-4242 2533.2l-2108.1 -1977.1l2105.9 -8682.8l-4614.1 560.7l3251.3 -4487.6l-1744.9 -7872.7l7907.8 -8882.5l-1652.6 -4953.1l-5490.3 -1051.8l-665 -3956.3l-4865.5 -568.2l-2351.5 -4974.4l-1291.5 -7053.5l-66.1 -77.5l-9583.9 2264.9l-3909.2 -3342.2l540.1 -6377.1l-5352.7 5037.6l-3068.5 -4309.8l-668.7 -901.8l-1851.4 -6018.6l-3997.3 102l-306.3 -5993.8l3360.8 -4708.1l14245 1909l8015 -2465l8834 3903l9328.1 -4185.4l14621.9 -1584.6l4104.2 2941.6l5245.8 -1897.6l14735 3264l6149.9 -3170.9l7004.1 -4190.2l6751 -6486l2287 -18105l4050 -2160zM368305 -480209.1l83 14.5l-54 -95.4l-29.1 80.9zM367767.3 -480126.2l164 165.9l14.5 -49.8l-178.5 -116.1zM368124.4 -479997.6l10.4 49.8l37.4 -49.8l-47.7 0zM368234.4 -479655.4l20.8 72.6l20.8 -45.6l-41.5 -27z" />
	<path id="zoomregion_2" regionname="경기" d="M166783 -415860.9l-955.1 3863.3l-7200 1146.2l3028.6 -4229.6l-3167.7 -5778.2l4063 -807.1l-828.2 2679.2l5059.3 3126.1zM165528.5 -414151.5l110.6 105.3l61.2 -269.4l-171.8 164.1zM165919.2 -414157.2l-161.4 580.6l289.2 -65l-127.7 -515.6zM209492.2 -532116.9l306.3 5993.8l3997.3 -102l1851.4 6018.6l668.7 901.8l3068.5 4309.8l5352.7 -5037.6l-540.1 6377.1l3909.2 3342.2l9583.9 -2264.9l66.1 77.5l1291.5 7053.5l2351.5 4974.4l4865.5 568.2l665 3956.3l5490.3 1051.8l1652.6 4953.1l-7907.8 8882.5l1744.9 7872.7l-3251.3 4487.6l4614.1 -560.7l-2105.9 8682.8l2108.1 1977.1l4242 -2533.2l8957.9 7111.6l7531.1 49.6l4985.2 3534.6l-7915.9 5564.2l3817 7552.3l-3684.1 7610.3l-892.8 16696.7l-1227.9 1585.6l-3368.7 6910.1l-5933.6 -1440.1l162.9 521.2l-2285.5 8956.6l-4116.8 2898.3l-6033.4 -1096.6l-3825.9 4656l-4681.3 1473l-758.8 4161.3l-7893.5 3458.7l-591.3 3968.9l-15190.5 -8325.3l-4054.8 3415l-14719.1 3709.5l-7390 -10025.8l-4281 -757.8l1729.6 -1118.4l-4669.6 -3022.7l1397 -8644.2l4945.3 -2833.6l-3031.1 -1036.6l1450 -4234.5l-10169.1 8705.8l553 -6249.2l-3551.2 1463.8l1868 -4524.8l2578.8 -2029.6l-2924.6 555.5l1086.6 -5845.8l9577.9 3184.3l1621.8 -5841.5l3920.3 1279.1l-1767.6 -3329.7l-9071.9 -1529.8l-3637.7 -3032.9l4569.9 -5593.9l3059.9 -4345.1l646.2 -4122.6l-922.3 2.8l-2235 -1862.8l1594.7 -3947.4l660.3 -3338.2l2372.7 2051.5l2434.5 -541.6l227.3 3595.1l-468.2 3108.6l1223.6 376.6l3657.4 -935.2l1006.1 3148.4l1265.5 2184.2l2502 -1422l3039.7 1015.3l2258.1 -1894.4l2437.6 307.1l2770.4 2718.1l432.1 263.6l6.9 0l1882.3 -956.8l20.3 0l1978.6 -2702l1706.4 313l101.4 0l489.7 -735.3l569.1 -299.8l164.3 0l826.9 -644.9l99.9 -3523.6l305.6 -1277.6l34.5 5.6l3401.7 -3215.4l-1671.2 -3736.7l-4558.2 2136.6l-1075.3 -1467l591.8 -5208.9l-175.4 -38.5l477.8 -2395.5l-2599.1 -5987.1l-2732.4 1040.3l-3081.3 -1553.3l-666 1814.5l-1460.4 578.5l-598.1 3715.7l-30.1 1045.8l-528.2 301.2l-21 -0l-294 273.4l-290.3 -99.9l-2159.2 -2958.4l-3697.1 1116.2l-5.6 -0l-316.3 4433l-1731.9 1992.2l-2165.5 1805.5l-4658.9 -3269.2l-1000 2485.9l-3697.8 216.6l-2353.6 -1386.1l-6404.1 -5313.8l-7070.7 5731.3l-3816.5 -7254l-211.4 -9448.7l-992.9 -3208.1l8355.6 1597.5l5083 -3488.6l103.3 -13995.2l263.2 -5138.9l-4157.5 -564.8l-13 -2729.6l7924.9 -1768.2l3069.3 -14.1l-26.4 -6431.1l3051.5 -2511.5l-2971.2 -4927.7l6829.6 -7799.5l4136.9 -2753.6l7498.5 3888.3l1511.3 -5153.5l11674.5 -6387.3z" />
	<path id="zoomregion_3" regionname="경남" d="M336219.7 -147003.7l1995.9 4600.8l-3911 1157.1l-44.1 -6293.8l1959.2 536zM336815.1 -144189.6l4.9 222.7l208.8 -161.5l-213.7 -61.2zM315736.8 -147317.9l-2383.3 2604.4l-3783.5 -2530.4l3418.9 -2656.1l2747.9 2582zM312694.7 -150308.9l-4250.5 2237.2l-1475 -3116.6l5725.4 879.4zM294358 -158345.1l-1970.2 5725.5l3327.5 -3258.5l2967.9 7639.8l-10106 -1572.8l3368.9 -8512.7l2411.9 -21.1zM293784.6 -149981.5l445.2 405l25.4 -261.4l-470.6 -143.6zM282017.3 -153275.3l4310.1 7189.3l4341.2 -2665.2l6850.5 1617l-2819 10501.1l2396 1609.3l-3772.9 871.9l-523.3 -2480.2l-5269.6 1661.5l-721.6 -7519.2l-4109.4 1326.9l-1106.5 4928.1l-5101 -3169.3l-2813.3 -11856.7l5899.8 -9736.1l4910.2 416.4l1360.4 3269.6l-3831.7 4035.3zM284135.6 -149177.6l8.9 44l79.9 -52.6l-88.8 8.6zM276063.8 -143523.9l29.6 311l161.1 -116.2l-190.8 -194.8zM276813.4 -142297.3l8.7 188.1l344.2 -271.1l-352.9 83zM276456.2 -141035.6l129.7 201.9l-74.5 -190.4l-55.2 -11.6zM276352.9 -140667.8l206.4 147l194 -43.1l-400.4 -103.9zM356244.2 -171685l-1493.1 6061.4l2987.3 4308.1l-2756.8 6380.3l6284 -1639l-5720.5 6300.9l3712.3 5769.9l-6641.4 -2705.3l-2693 5492.3l3539.2 3825.1l-4499.4 -849.8l987.8 3012.6l-5570 878.2l1734.4 -8408.6l-3870.8 1285.3l1251.3 -2173.3l-2794.9 -222l4151.5 -1086.6l374.2 -5499.6l-1427.5 -785.6l-861.1 2400.3l-3576.4 86.1l-1219 2624.6l-3625.4 -7483.8l4964.8 -5280.4l3754.7 2649l1595.2 -1657.1l992.3 1535.7l923.9 -719.8l1695.4 1561.7l-3947.1 -6180.5l6177.3 -1288.1l-69.8 -2248.3l-3772.3 579.4l3558.9 -5408.5l708.6 4882.9l1640.8 -6886.1l3505 888.5zM308926.3 -243858.5l-4004.9 3781.6l13278.5 -181.1l4445.1 1346.1l719.8 3383.9l763.9 70.5l11585.4 -3208.6l2396 -4901.5l1015.1 6502.4l5228.8 4281.8l8620.4 -1337.4l8839.3 3090.4l7677.4 -6039.5l4357.8 -3206l5413.5 4197.4l2169 -1357.6l1611.4 3918.3l-4419 2744.3l2210.7 3469.2l10235.7 3530.3l5526 6897l2783.1 -877.5l716.7 5708.7l-2002.4 3887.5l-4448.7 -1279l-1900.8 6766.4l-5250.7 2887l-3438.7 822.9l-1278.6 4343.2l-10286.8 2499.7l-854.3 7046.6l-7276.2 -610.9l4581.1 4788l-1806.9 1626l-2801.9 2274.5l-286.5 -3824.7l-8501.6 1952.3l-736 -5843.7l-2038.1 3517.6l-1751 -3519l-3226.8 291.5l-2132.8 -5670l2734.1 -1474.2l-3042.6 374.1l-1893.7 2811.2l5702.2 10667.9l-1783.9 1478.7l2851.9 706.2l-5659.5 1861.4l1949.5 -2039.7l-3090.7 375.4l1672.9 -2501.3l-4080.8 -3205.5l-1611.2 2445.2l-6175.6 -879.2l2649.1 2929.8l-487.5 368.1l-462.6 -678.1l-688.1 1154.2l-1984.9 12.7l-687.5 1576.6l-876.7 150.4l-983.3 -614.5l-2588.3 1820.2l-886.9 -404.8l-1667.1 4460.9l3101.9 -877.1l929.1 -2625.9l4650.5 -1300.7l-777.9 -919.4l278.9 -887.2l884.3 -330l499 835.9l792.6 -1415.2l1188.9 1092.5l-587.1 1165.9l645.8 293.3l-2076.9 626.1l4002.5 3627.3l-8642.4 2402l3242.4 2286l-1909 1941.7l1406.4 2622.1l-1319.9 6516.5l1672.9 -4483.3l3486.2 2634.6l-4993.8 5736.4l1308.1 6482.2l-3423 1648.2l-1809.9 -5514.8l-4547.6 -1544.7l2186.6 -1487.5l2998.3 3205l1687.4 -2144.6l-3281.1 -1864.3l4223 -1992.2l-2836.7 -103.6l-820.7 -2493.2l282.4 893.9l-383.9 176.4l-410.4 -357.1l428.1 1704.6l-2393.6 -1951.5l-53 1607.6l-1816.4 -280.4l-2847.3 -2754.7l5260.5 -886.8l-1063 -3250.2l-2446 -2639l-4019.7 6933l-538.9 -4493.5l-4104.4 -666.3l-2455.9 1186.8l677.8 4636.5l-4241.4 -1537.1l-2126.5 2323.3l-1260.8 -3775.5l-7861.4 238.5l1917.1 -18531.9l-3155.6 6577.8l-4095 -508.8l3899.6 2502.9l-938.8 3124.2l-997.2 -1506.2l-1284.9 2272.5l-1028.2 -2002.3l-766.5 -65l-2039.8 1747.2l-1731.6 -3889.1l-1801.4 6593.3l-11683.4 154.4l292.4 -3758.5l-1066.5 -7360.1l-4485.9 -3049.1l-8556.4 -11280.7l-4387.6 -13783.6l3891.4 -2616.2l-939.8 -3763.2l5621.5 -8631.1l-3271.3 -1704.8l-798.6 -8476l-3940.8 -2065.6l6876.5 -18835.4l1448.5 -5039.4l1849.7 -2115.6l3999.2 -6256.4l6069.4 -980.7l6797 -6921.4l3540.5 6536l13802 1685.1l1090.9 888.5l6701.7 5892.1l3745.7 9762.6zM285079.1 -167770.2l18 151.6l57.3 -29l-75.3 -122.6zM285363.1 -167566.4l19.9 175l110.4 -107l-130.4 -68zM285197.7 -167447.2l-74.6 -108l-25.8 272.5l100.4 -164.5zM284953.7 -166928.2l64.1 69.6l-2.7 -169.6l-61.3 99.9zM298462.5 -158830.1l-30.3 125.8l152.1 -96.1l-121.7 -29.7zM295514.4 -158667.3l-247.2 -126.9l53 202.9l194.2 -76.1zM323434.7 -158546l22.1 101l134.5 -99.3l-156.6 -1.7zM330252.3 -156847l145.1 114.6l-91.1 -138.2l-54 23.6zM329822.8 -155956.1l226.3 503.4l56.6 -791.1l-282.8 287.7zM331329.6 -156022.6l65.6 -196.8l-137.2 51l71.6 145.8zM332018.3 -156915.2l54.5 -70.8l-108.9 25.1l54.4 45.7zM331750 -157448.4l-49.3 -155.7l33.8 185.2l15.6 -29.5zM331691 -157679.4l-14.1 -20.3l4.8 41.6l9.3 -21.2z" />
	<path id="zoomregion_4" regionname="경북" d="M416088.7 -397948.2l-1694.1 3129.2l869.8 15712.2l6014.1 13290.7l-6.4 7587.3l-4577.4 6377.5l-1015.4 5657.1l4060.7 9276.2l-6266.7 26791l-84.6 8083l5649.2 9998.2l-5271.7 6086.3l3231.1 2258.1l-1438.9 1978.8l5884.3 1929.7l8132.4 -10492.5l3195.4 4327.9l-5497.1 13371.9l186.2 9460.6l-5638.4 21353.8l-8356 -2991.3l-2976.6 2232l-2618.4 1834l-3736.7 -1710.6l105 -4399.9l-6916.1 -2403.1l-8580.6 2675.1l-1503.4 4744.6l560.3 2008.1l-2452.9 -1065.7l-3914.5 3411.8l-2169 1357.6l-5413.5 -4197.4l-4357.8 3206l-7677.4 6039.5l-8839.3 -3090.4l-8620.4 1337.4l-5228.8 -4281.8l-1015.1 -6502.4l849.9 -3819.6l6507.2 -2590.7l2771 3627.6l4961 -4291.2l-1154.9 -5088.5l3806 -7527.7l3217 -1029.1l-1648.8 -11570l-1019.7 -2484.1l-3645 -2532.7l-4914.9 721.4l-2153 876.1l-1122.2 1623.5l-4348.5 2681.4l-2406.2 -1674l-2069.3 10004.2l-4631.4 -5762l-5328.4 6747.4l-276.1 3629.9l7306.1 1821.8l910.9 1678.9l-5384.2 980.8l-3092.9 5346.7l4360.4 6501.5l-7399.1 70.6l4791 6713.5l-2867.2 3454.4l-763.9 -70.5l-719.8 -3383.9l-4445.1 -1346.1l-13278.5 181.1l4004.9 -3781.6l-3745.7 -9762.6l-6701.7 -5892.1l-1090.9 -888.5l-13802 -1685.1l-3540.5 -6536l2117.3 -3889.2l-3189.1 -8070.9l7563.2 -5170.3l3127.7 -9630.7l-1537.6 -4790.8l7416.1 -189.8l-1724.1 -5916.4l-3111.9 -2127.5l-4475.7 2233.6l-5007.8 -5494.9l-4789.5 3186.3l-625.9 -4678.5l3058.9 -6157.9l-665.2 -12748.6l2511.8 -4637.4l-9347.8 -8160.3l5415.8 -1263.1l1809 -4935.3l3662.2 5927.2l1027.2 -6813.7l-4936.5 -1849.9l4577.1 -945.1l2870.4 -5204l9877.9 3202.2l-3542.1 -4485.5l2342.9 -7665.7l2956.4 2221.8l3584 -3869.9l7454.6 1919.2l-287.4 -3329.3l2484.1 -3351.5l11230.8 7856l6081.3 -3875l1202.8 -1590.7l-2302.3 -2999.8l1524.1 -5756.8l9337.8 -7500.7l1716.1 -4507.7l7425.5 -3563l5096.4 2821.9l4704.5 358.3l1488.4 -6366.1l8369.8 5138.8l3241.9 -2538.2l2772.7 -3211.8l10761.3 3043.2l2934.3 -3909l8119.4 6300.1l4737.6 235.4l-1246.9 -3794.4l4009.2 -4936.3l8109.3 -3460l6113.1 9616.3zM427398.7 -287084.8l-35.4 -14.6l7.3 59.7l28.1 -45.1zM427360.2 -287126.6l18.5 -46.1l-42.4 26.1l23.9 20zM428082 -287589.8l-17.3 -22.4l5.5 24.8l11.7 -2.4zM545381.6 -450173.7l-2724.5 2803.8l-5595.2 -2033.7l-2123.3 -5550.1l10062.4 -3257.7l380.6 8037.7z" />
	<path id="zoomregion_5" regionname="전남" d="M156739.8 -75917.7l8278.3 1743.4l-8945.4 4806.2l-1903.5 -4251l2570.6 -2298.7zM159120.4 -75288.9l738.4 407.2l151.2 -295.5l-889.6 -111.6zM161650.2 -73022.7l168.8 146.6l-47.8 -442.7l-121 296.1zM162043 -72851.2l-6 97.2l55.6 -32.5l-49.6 -64.7zM170730.8 -72200.1l-2248.9 4035.1l-2930.7 -3899.9l2135.5 -6082.5l3223.2 2056.3l-2611.2 1323l2432.1 2568.1zM191801.2 -79504.6l327.8 6514.6l-5432.4 396.3l126.3 -5495.3l4978.3 -1415.7zM191605.4 -78568.3l52.1 92.6l55.5 -56l-107.7 -36.5zM165398.5 -78621.5l-3559 3570.1l-3596.1 -1869.1l590.9 -5006.7l6564.3 3305.8zM223787.6 -83739.1l39.1 4401.9l-3321.8 186.8l3282.6 -4588.7zM221730.8 -79644.2l42.7 235.4l104.5 -135.2l-147.1 -100.3zM116064.8 -90863.5l423.5 4364.2l-6483.4 -1420.5l-201.7 -2785.5l6261.6 -158.2zM201305.6 -92696l-3769.7 3463l-1013.4 -3748.9l4783.1 285.9zM190532.4 -94079l-4845.7 5126.9l-1251.3 -2805.8l-3715.4 897.5l-3711.1 -2211.8l13523.5 -1006.9zM202656 -98120.6l6739.5 4884.2l-3201.5 -1053.8l-2434.6 4309.3l929.4 -3521.1l-6011.1 -2215.2l1846.4 126.9l423.6 -2100.8l1708.4 -429.4zM173330 -99695.3l6132.5 11936.3l-7640.3 -567.6l-4768.4 -3914.4l-509.5 -6647.3l6785.7 -806.9zM177417.6 -91068.4l52.4 145.4l71 -197.6l-123.4 52.2zM187483.8 -101461l6080.8 2275.6l1600 -2198.1l63.8 4787.6l-3800 1427.6l-4049.5 -2040.7l854.8 -2156.4l-749.9 -2095.5zM184730.1 -105132.3l2395.1 5289.8l-6188.2 1567.1l-1245.8 3316.5l-67 -3268.6l-2770.5 248.6l7876.5 -7153.4zM185015.1 -102263.2l19.3 59.7l21.3 -40.8l-40.6 -18.9zM205979.5 -105952.3l-404.3 5766.3l-3580.8 -6272.1l3985.1 505.8zM249282.7 -105697.8l-2170.5 3011.2l-5719.8 -2812.5l311.8 -3250.2l7578.4 3051.6zM219089.8 -103519.5l-6190.6 992.2l-3667.8 -2894.8l1226.3 -4833.6l11418 1512l-2785.9 5224.2zM241820.7 -116463.5l1660.2 3522.9l3029.4 2538.3l-5037.8 1354.3l348.2 -7415.5zM242872.7 -113018.8l45.6 240l115.8 -134.7l-161.4 -105.3zM242499.7 -112507.6l69.3 71.7l40 -78.3l-109.3 6.6zM271335.4 -112195.1l1163.4 2040.5l-8642.3 -5711.8l5612 -1522.8l1866.8 5194.1zM131137 -121504.1l12047.9 9495.2l-4294.9 10575.8l-3995.7 -.8l1767.4 3617.5l-2165.8 1315.8l-2121.4 -3685.8l-7885.1 5128.8l-4621.3 -998.5l1231.3 -2831.1l-1168.9 -54.1l-281.9 764.8l-905.9 25l-2567.3 -4517.3l9433 -10563.7l1297.9 2083.9l1929 -5035.9l4576.3 937.6l-2274.7 -6257.2zM123543.9 -110508.2l-29.5 424.3l128.2 -205.3l-98.7 -219zM134463.3 -99337.6l16.6 1.9l86.3 -19.8l-102.9 17.9zM95540.3 -123554.9l-4055.3 1289l-1361.3 -3434.9l4863.1 -659.3l553.6 2805.2zM114254.9 -126760.7l4158.6 5278.2l-5226.2 6405.3l-2774.3 -636l3258.1 -2073.2l-3165.5 -161.9l5037.6 -2438.1l-3130.7 -3464.8l1842.5 -2909.5zM115989.4 -124323.8l59.2 83.3l35.9 -188.2l-95.1 104.9zM126808.1 -126570.9l-6580 2387.5l-1199 -5726.3l6135.5 269.6l1643.5 3069.2zM114167.9 -120918.6l-4227.7 2107l-810 -7527.8l3487.4 -4191.4l-1016 6450.6l2566.2 3161.7zM126049.8 -134889.5l-1505.2 4129l-2130.2 -1771.4l1377.6 -994l727.1 305.9l1530.7 -1669.4zM273862.1 -129433.9l-1379.7 5830.8l1341.6 2046.7l-3019.8 285.1l-5741.5 -3807.8l4766.4 -7315.4l-2403.9 -4883l4626.1 1722.2l-967.9 3871.3l2778.7 2250.1zM273191.4 -127905.2l130.3 79.5l-63.8 -290.1l-66.5 210.6zM109604.5 -135175.1l-4506.8 5960.4l-4732 -3488.9l4335.8 -5531.6l4903 3060.1zM126078 -137336.1l-6801.9 5394.2l-5134.9 -3344l1440.4 -7376.5l10496.4 5326.2zM107982.7 -145756.9l246 5169.2l-5235.4 753.2l-2137.5 4209.5l-2967.6 -1803.3l1131 -5514.7l8963.5 -2813.9zM105436.9 -144673.5l59.5 39.5l34 -42.8l-93.5 3.3zM101039.5 -143130.2l95.5 212.1l95.5 -668.1l-191.1 456zM123096.4 -147592.7l803.6 7360l-7990.4 -3642.6l3240.8 -294l3946.1 -3423.4zM122882.1 -152239.3l-5871.6 7686.7l-3203.2 -5954.6l4567.7 -12.1l547.2 -3660.6l3959.9 1940.6zM268184.7 -154544.4l-2424.3 2214.1l-2616.1 -1777.8l2190.2 -1753.6l2850.2 1317.3zM142118.4 -151164.1l-1055.4 4803.5l-2535.8 -4116.6l-9336.8 337.7l5280.6 -1718.4l1164 -6503.1l4950.7 3680.2l-3464.1 1101.5l4996.8 2415.1zM116288.5 -152040.7l-3838.3 2273.9l-7043.3 -3716.2l9501.4 -6747.7l3144.5 4227l-1764.2 3962.9zM113062.5 -150519.4l161 112.2l69.2 -155.1l-230.2 42.9zM266725.5 -161712.5l366.6 4992.9l-2905.2 -2223.8l2538.6 -2769.2zM129338.8 -165514.7l-3007.2 7881.4l55.7 -5488.8l2951.5 -2392.6zM120210.5 -170120.8l5545.4 4527.6l-2756.5 5371.3l-3094.4 -926.1l1002.6 -6006.4l-3404 19.1l2706.9 -2985.6zM125150.1 -172868.8l1361.7 4655.2l-2606 -2336.6l-3736.7 -1866l4981 -452.6zM123824.1 -183295.1l-5869 10959.3l-5900 -2102.9l836.5 -916.7l-458.7 -552.7l1106.3 -2028.7l-377.8 -644.4l2077.8 -215.7l1254.7 -758.9l2621.5 -3550.6l4708.7 -188.7zM122315.9 -181573.7l86 268.6l151.2 -291.8l-237.3 23.1zM192623.1 -211387.6l3976 802.1l3329 -7411.9l3141.8 -469.5l1662.9 4337.9l-2327.5 3525.9l3908.3 3193.8l-2447.4 4922.8l4852.9 2218.5l2930.8 -647.1l5195.6 -3187.3l18047.2 3600.5l1348.8 -1074.5l6560 -5991.6l9641.2 6350.8l4387.6 13783.6l8556.4 11280.7l4485.9 3049.1l1066.5 7360.1l-2113.4 2888.5l-2339.9 -92l-5003.4 6316.5l-4674.8 185.1l-1617.5 -3661l-2372.6 2173.4l729.4 3457.8l4838.7 7482.4l5111.3 -4930.3l708 1011l3013 -1039.3l681.5 1450.1l1987.5 -1510.2l1436.4 1360l-3185.2 8329.9l2177.1 3666.7l-5885.8 2690.9l-4292.5 -3889.9l-1838 5371.6l-2121.2 452.9l2999.2 8238.8l-5232.4 -2530.9l-843.4 2335l-2753.4 -5688.8l2828.8 -1296.9l-3039.6 -2049.9l5086.7 -3459.2l-4175.8 -3720.9l1300.9 -649.1l-1435 -2646l-3146 -316.1l1749.5 -3722.7l-2773.3 -4190.4l-2389.1 4546.2l-6289.1 897.4l-5801.7 -707.3l6824.4 2797.2l-3370.3 2634.2l-1077 6949.8l1630.8 2254.7l443.3 -168.8l1017 461.5l189.7 -293.7l731.8 609.6l1118.7 -1.1l900.1 1215.4l38.7 -723.3l761.8 69.8l-897.5 1558l-3807 -2269.3l3995.6 4478.8l2934.6 -1074.4l1342.7 3150.8l-2868.2 278.2l4389.4 5381.3l-10347.8 646l808 1971.6l2331.7 376.8l-3037.9 678.3l3834.2 1202.2l-1461.1 2026l794 1912.7l-1603.1 -903.2l-853.5 1824.7l-2380.7 107.1l409.8 2824.9l-3851.5 -1185.2l-1114 5322.7l-6351.8 -7934.4l-13530.2 -3717.6l8329.1 -11649.4l-1541.2 6160.3l3676.9 1288l2271.8 -14132.6l2711 -749.9l-116 5067.4l3225.7 854.3l2672.1 -4922.3l-1579.2 -4662.7l-6093.3 2130.3l-1506.8 -4703.7l-5401 8965.8l-5157.4 -1262.7l-7520.7 6829.4l-7572.4 2005.3l4172.4 2045.6l-2755.4 3734l2300.6 2026.4l-4229.9 2756.8l1834.2 2162.4l-1579.5 1304.3l1582.8 3224.2l-9671.4 1601.4l1091.7 3800.6l-3660.5 -3276.3l-3530.6 93.4l-1125.3 -3186.4l-1053.6 -17078.1l-4422.3 19786l-10832.3 5796.7l-1071.5 9682.7l-4309 -807.1l-3252.6 3280.9l-340.2 -7614.7l-4991.6 306.9l4732.6 -6252.6l-5727.3 -3835.9l2075.4 -157.2l-1483.1 -9093.2l-3262.8 -2602.1l-3241.2 2569.7l-531.8 -3294.3l-1863.5 345.5l-790.5 -1262.2l-1851.4 -373.9l-1861.8 702.2l-5003.4 -5077.8l3164.3 -1908.9l-3477.9 -3866.2l2920.2 -10459.5l4486.9 2276.4l-384.7 1904.6l1771.1 1996.8l-1197.6 2035.2l2841.7 8925.7l7547 2538.7l3115.5 -3299.1l-2962.5 311l-3412.9 -6287l-3714.9 1109l2485.3 -4026.6l-2078.7 -1955.4l-312.2 2292.7l-2532.4 988.3l-206.4 -1582.8l2778.1 -2340l3402.7 3369l3893.4 -1700.8l-2267.6 3762.2l3465.7 2636.1l13898.4 1725.4l-5787.1 -4149.2l-4583.5 -7484.1l-7420.3 731l2143.3 -1972.3l-7968.9 -118.7l7541 -5349.9l-7936.9 -283.9l4991.7 -5440.8l-3408.2 -17184.8l-471.3 8765.2l-1448.2 -290.7l-872.6 913l-1316 -233.5l-262.3 -1628.1l-1818.4 299.7l-1037.5 -4167l5763 -2062.8l-2274.1 -1087.7l5131.9 -3366.4l-55.7 -1326.5l-657.9 -1316l-2670 1028.8l-2630.2 -5569.7l-1774 4937.8l-3742.7 -1078.8l320.1 3489.1l-3389.8 501.3l381.1 -3940.6l-2499.5 1490.3l-261.9 -2462.6l-3748.5 -592.2l415.3 -1858l-750.3 -824l3032.8 -2410.4l5216.9 1780.8l2168.3 -5904.7l4294.1 2147.2l2541.3 -3129.9l-332.3 3180.5l-953.9 4190l3451.5 3489.7l2533.4 -2345.2l348.4 6247.6l5025.8 -5218.9l-1933 -1347.9l2643.3 -1471.1l-8708.8 -7296l-2626.7 -2420.3l3387.2 -2761.5l-6365.8 3679.9l-827.7 -5458.7l9150.5 -15639.7l4624.7 2277.7l-4159.8 -5290.9l4172.1 -3720.4l4097 2314.7l-1414.1 2539.1l4709.5 8627.6l5643.3 361.5l1138.8 -3352.8l3686.3 1790.1l3733.8 -2718.2l6225.5 -7944.5l-1400.1 -3694.8l3098.8 -2085.6l4869.2 -1978.5l3858.9 2770.1l4615.6 6597.2zM143175.8 -201906.1l-43.4 -10.9l-14.7 65.4l58.2 -54.6zM143261.7 -203620.1l-57 -4.6l47.2 53.9l9.8 -49.2zM174463.7 -190792.2l-6129.3 2603.2l161 8584.6l6997.1 166.4l3535.6 4863.7l4205.5 1985.2l6848.4 -2875.4l2478.4 -1481l2971.5 2054.2l4172.6 -4607.2l1175 -2130.5l560.1 -5059.8l-4367.2 -173.6l-3519.8 -7877.9l-4587.7 44.1l-3926.8 2482.2l-4570.2 755l-2579.2 -4018.8l-3425 4685.5zM127980.3 -172979.4l40.7 150l61.4 -112.1l-102.1 -37.9zM135606.5 -120515.9l565.8 -854.5l-556.2 174.2l-9.6 680.3zM136274.6 -120949.7l-5.9 38.8l68.7 -38.8l-62.8 -.1zM133249.2 -123680.2l21.8 -65.8l-41.4 27.8l19.7 37.9zM143590.7 -117014.3l39.1 73.4l69 -112.5l-108.1 39.1zM237149.8 -134266.8l121.9 138.6l42.5 -99.2l-164.4 -39.4zM243787.3 -129168.2l129.3 44.6l-66 -159.3l-63.2 114.7zM221244.2 -124159.7l259.8 330.1l16.5 -119.3l-276.3 -210.8zM235501.5 -111972.5l77.4 30.1l-9.9 -133.2l-67.4 103zM263175.4 -151426.5l96.6 -166.1l-102.3 62.1l5.8 104z" />
	<path id="zoomregion_6" regionname="전북" d="M137964.2 -234831.2l-4447.4 4864.2l-314.7 -3179.9l4762 -1684.3zM205457.2 -288113.2l6174 3083.3l6754 -3876.6l4435.3 1852.3l-216.7 -3263.4l6399.3 -1902.8l4981.8 11885.2l5103.2 -775.9l1960.9 5076.9l6199.6 -229.2l590.3 -6169.8l7340.6 4408.7l1310.6 -3243l891.2 -4243.1l11486.8 6162.9l7605.3 -3124l2500.4 1889l3189.1 8070.9l-2117.3 3889.2l-6797 6921.4l-6069.4 980.7l-3999.2 6256.4l-1849.7 2115.6l-1448.5 5039.4l-6876.5 18835.4l3940.8 2065.6l798.6 8476l3271.3 1704.8l-5621.5 8631.1l939.8 3763.2l-3891.4 2616.2l-9641.2 -6350.8l-6560 5991.6l-1348.8 1074.5l-18047.2 -3600.5l-5195.6 3187.3l-2930.8 647.1l-4852.9 -2218.5l2447.4 -4922.8l-3908.3 -3193.8l2327.5 -3525.9l-1662.9 -4337.9l-3141.8 469.5l-3329 7411.9l-3976 -802.1l-4615.6 -6597.2l-3858.9 -2770.1l-4869.2 1978.5l-3098.8 2085.6l1400.1 3694.8l-6225.5 7944.5l-3733.8 2718.2l-3686.3 -1790.1l-1138.8 3352.8l-5643.3 -361.5l-4709.5 -8627.6l1414.1 -2539.1l-4097 -2314.7l3378.7 -10296.8l16972.2 -5388.8l-3103.4 -3111.4l-11619.6 2250.1l-4729.4 -6399.9l2119.2 -897.7l447.5 -1190.9l1754 -412l2236.8 -1961.9l433.4 -1506l5571.4 -2375.9l3473.3 -9749.6l8670.4 727.8l4415 4056.2l199.7 -5590.6l-8466.3 -3837.6l2184.8 -1610.8l7186.1 -910.5l4355.5 -5118l-20273 2766.5l-91.6 -294.4l268.3 -252.7l-383.2 -2836.7l537.3 -2723.1l-6225.9 -3119.1l8639.5 -1057.4l8310.5 -2410.1l11615.3 -6602.7l590.3 -962.8l2008.8 -7928.4l10002 -927.7l3613.8 232.2l1605.3 5941.3z" />
	<path id="zoomregion_7" regionname="제주" d="M179523.4 -7882.4l7320.4 4160.4l4060.9 429.1l25.5 4739.6l-1.6 421.3l576.9 -17.5l280.2 719.5l95.2 -291.8l69.9 64l293.3 69.9l-196.2 54.3l93.2 133.9l283 -212.4l190.4 108.7l-83.5 473.6l1452.7 -886.5l1143.7 2205l-3554.2 5124.3l-7020 11470.1l-19657.1 6155.9l-2422.6 1792.5l-21432.6 465.8l-4469.2 -872.3l-4571.7 4886.8l-9567.5 -9796.6l-705.1 -6293.4l8390.7 -7007.6l1141.2 -3925.4l14740.4 -6029.3l12606.6 -3102.7l4456.2 -1533.3l2742.4 -191.4l1027.2 -2170.7l2083.8 1498.2l10607.4 -2642.1zM159969.6 28387l642.4 409.3l-185.4 -600.9l-457 191.5zM161004.8 28360.9l-67 464.4l511 -202l-443.9 -262.4zM158307.4 28915.2l139.6 -233.5l-507.1 -70.2l367.5 303.7zM158352 28570.7l102.1 81.7l-38.3 -83.9l-63.8 2.2z" />
	<path id="zoomregion_8" regionname="충남" d="M149146.4 -320688.2l2173 3494l-6603.8 -2903.5l4430.8 -590.4zM145874.9 -343991.9l3460.5 19376.8l-718.4 2450.7l-5050.4 -1259.3l-694.6 -3408.9l-2859 337l-1844.7 -14578.4l4538.3 -4888.4l3168.2 1970.5zM139420.2 -333629.8l139.2 79.4l46.3 -99.6l-185.5 20.2zM139711.7 -333475.4l-123.3 121.6l306.1 -105l-182.8 -16.6zM144561.3 -323480.3l68.5 105.3l48.2 -60.9l-116.7 -44.4zM145051.8 -323175.2l46.4 131.7l54.6 -174.7l-101 43zM180565.9 -386032.2l5730.7 12544.6l5500 -4675.6l14719.1 -3709.5l4054.8 -3415l15190.5 8325.3l11634.3 15077.2l-7483.7 584.8l-4456 6854.2l-10718.5 -4718.5l-3137.4 2638.7l2970.7 3188.1l-1173.7 6743l5537.9 4649.7l-16 4982.3l-1195.7 5936.8l3201 6692.9l4946.5 22.3l-936.6 3481.4l-1682.2 6752l-911.7 4860.6l3807.9 2124.3l-1224.4 2236.4l4817.8 6615.2l1760.2 -2771.4l1889.1 -6991.6l1349.7 2494.5l3169.4 4576.3l2347.5 1322.7l3967.1 -4658.9l8134.2 701.9l1373.4 5208.3l-678.4 5610.5l4327.9 7237.9l-891.2 4243.1l-1310.6 3243l-7340.6 -4408.7l-590.3 6169.8l-6199.6 229.2l-1960.9 -5076.9l-5103.2 775.9l-4981.8 -11885.2l-6399.3 1902.8l216.7 3263.4l-4435.3 -1852.3l-6754 3876.6l-6174 -3083.3l-1605.3 -5941.3l-3613.8 -232.2l-10002 927.7l-2008.8 7928.4l-590.3 962.8l-11615.3 6602.7l-6225 -430.2l106.5 -3122.6l-2042.3 -2553l-1335.3 161l134.6 -2532.8l-1106.1 -21.3l2349.4 -1838.9l-2883.1 -237.9l-1848.7 -3562.3l-1890.5 -1427.2l-6859.8 499.4l3324.1 -6511.7l3138.9 759.2l-3586.5 -3489.4l1872.4 -5496.7l-4090.7 -6201.3l5474.6 -2971.8l-7335 -3647l933.8 -14822.3l-478.6 160.6l-3697 -9304.9l3276.6 -918.5l-1086.8 -3955.6l-1294.1 -5517.2l-2493.3 10344.2l-4456.4 -1852l-2412.2 -11603.1l762 11342.9l-5663.7 3868l-1776.1 -16160.3l-6653.5 6021.1l-5924 662.3l3145 -5441.7l4977.8 -391.4l-5028.2 -4066l-2082.4 410l927.4 2580.6l-2658.6 2588.4l932.8 -4704l-2753 -2675.4l4146.1 -2504.1l167.1 -5601.1l3178.1 3567.5l1683.8 -10014l4492.2 -1048.2l-3146.8 3837l4759.2 443.2l3042.4 -11411.4l2399.3 9794.3l-1686.1 887.5l-1570.6 3404.9l-164.1 1094.7l1992.2 427.4l-77.9 559.7l-3158.2 1741.1l910.1 2189.6l3857.9 -1829.4l-519.8 -5133.1l3288.2 3540.5l-840.2 -2134.7l1303.1 -931.2l-538.6 -2242.7l6007.3 -2581.4l-2058.7 -882.9l235.9 -2859.4l-2172.9 513.9l-1122.9 -1849.5l-1258.1 903.1l-847.2 -2548l-1401.2 142.9l462.1 -5719.4l10114.6 746.7l2105.9 11090.2l921.4 -8593.7l-2914.7 -4765.4l2725.5 -4113.5l13815.4 7245.7l12719.7 2524.4zM139843.1 -378122.1l-88.1 -32.5l56.3 119.7l31.8 -87.2zM139769 -378314.5l-21.1 -175.8l-51.9 69.5l73 106.3zM138975.5 -379121.1l10 -111.6l-70.4 75.7l60.4 35.9zM139092.3 -379469.9l-147.6 -38.9l100.3 155.3l47.3 -116.4zM138296.5 -381847.1l588.7 -960.9l-473.6 274.8l-115.1 686.1zM166616.3 -284108.9l41.8 77.3l81.3 -114.4l-123.2 37.2z" />
	<path id="zoomregion_9" regionname="충북" d="M289317 -417115.8l3619.6 6924.3l6976.4 -5181.5l3354.2 2362.4l3240 -3984.9l6018.6 4444.8l5736.7 -993.2l-5994 6276l3022.2 2882.2l5413 -1827.1l2083.4 -1199.8l3802.2 6394.5l5774 -2360.8l14514.4 6132.5l-7425.5 3563l-1716.1 4507.7l-9337.8 7500.7l-1524.1 5756.8l2302.3 2999.8l-1202.8 1590.7l-6081.3 3875l-11230.8 -7856l-2484.1 3351.5l287.4 3329.3l-7454.6 -1919.2l-3584 3869.9l-2956.4 -2221.8l-2342.9 7665.7l3542.1 4485.5l-9877.9 -3202.2l-2870.4 5204l-4577.1 945.1l4936.5 1849.9l-1027.2 6813.7l-3662.2 -5927.2l-1809 4935.3l-5415.8 1263.1l9347.8 8160.3l-2511.8 4637.4l665.2 12748.6l-3058.9 6157.9l625.9 4678.5l4789.5 -3186.3l5007.8 5494.9l4475.7 -2233.6l3111.9 2127.5l1724.1 5916.4l-7416.1 189.8l1537.6 4790.8l-3127.7 9630.7l-7563.2 5170.3l-2500.4 -1889l-7605.3 3124l-11486.8 -6162.9l-4327.9 -7237.9l678.4 -5610.5l-1373.4 -5208.3l-8134.2 -701.9l705.2 -11168.7l4716.8 -6242.5l-3473.8 -3039.7l-491.2 2130.9l-1885.4 -3273.9l-480.5 -4981.6l-2756.7 3066.9l-4538 -600.7l-164.8 -3522.1l-382.2 -5236.2l-3402.4 -1735.7l-5198.9 -3511l-2197.2 -6243.3l2738.8 -4394.6l-1958.4 -1424.6l4456 -6854.2l7483.7 -584.8l-11634.3 -15077.2l591.3 -3968.9l7893.5 -3458.7l758.8 -4161.3l4681.3 -1473l3825.9 -4656l6033.4 1096.6l4116.8 -2898.3l2285.5 -8956.6l-162.9 -521.2l5933.6 1440.1l3368.7 -6910.1l1227.9 -1585.6l3758.6 7991.6l12123.6 -2415.3l269.2 -7561.6l6850.6 -2115.1z" />
</g>

<g id="zoomcities" fill-opacity='0' fill="yellow" stroke="gray" stroke-width='200' stroke-linecap="round" stroke-linejoin="round">
	<path id="zoomcity_0" region='2' choosen="false" d="M228440.1 -486904.6l10607.5 -18542.6l2351.5 4974.4l4865.5 568.2l665 3956.3l5490.3 1051.8l1652.6 4953.1l-7907.8 8882.5l1744.9 7872.7l-3251.3 4487.6l4614.1 -560.7l-2105.9 8682.8l2108.1 1977.1l141.7 5035.4l-5461.5 1278.3l-6251.3 -11036.4l-5020.4 2613.7l-3321.5 -11603.2l-5951.5 -3045.6l1838.6 -9889.8l3191.5 -1655.6z" />
	<path id="zoomcity_1" region='1' choosen="false" d="M341865.3 -475094.7l-2589.5 -5909.8l386.7 -4546.5l7103.4 -2782.6l12328.6 -3839.9l22510.5 26725l1387.3 7459.1l-2284.5 6739.8l-6370.7 1453.5l-6006.5 -1935.3l-1899.3 -4425l-3006.9 8868.3l-3066.5 1191.5l-3007 -4436.2l-9500.1 -1188.3l7839.9 -13468.3l-5284.9 -10216.3l-8540.4 311zM368388 -480194.6l-54 -95.4l-29.1 80.9l83 14.5zM367931.3 -479960.2l14.5 -49.8l-178.5 -116.1l164 165.9zM368134.7 -479947.8l37.4 -49.8l-47.7 0l10.4 49.8zM368255.1 -479582.8l20.8 -45.6l-41.5 -27l20.8 72.6z" />
	<path id="zoomcity_2" region='5' choosen="false" d="M181036.4 -109025.3l-1053.6 -17078.1l-4422.3 19786l-4815.6 -2146.1l-931.3 -13141l3138.1 -9911.3l-3258.6 -1042.7l981.5 -6918.6l10566.9 -2978.7l5153.9 6427.5l2445.3 10692l-2696.2 842.1l3299.3 8238.2l-3847.9 4257.4l96.4 6066.4l-3530.6 93.4l-1125.3 -3186.4z" />
	<path id="zoomcity_3" region='3' choosen="false" d="M351098.5 -165687.4l1640.8 -6886.1l3505 888.5l-1493.1 6061.4l2987.3 4308.1l-2756.8 6380.3l6284 -1639l-5720.5 6300.9l3712.3 5769.9l-6641.4 -2705.3l-2693 5492.3l3539.2 3825.1l-4499.4 -849.8l987.8 3012.6l-5570 878.2l1734.4 -8408.6l-3870.8 1285.3l1251.3 -2173.3l-2794.9 -222l4151.5 -1086.6l374.2 -5499.6l-1427.5 -785.6l-861.1 2400.3l-3576.4 86.1l-1219 2624.6l-3625.4 -7483.8l4964.8 -5280.4l3754.7 2649l1595.2 -1657.1l992.3 1535.7l923.9 -719.8l1695.4 1561.7l-3947.1 -6180.5l6177.3 -1288.1l-69.8 -2248.3l-3772.3 579.4l3558.9 -5408.5l708.6 4882.9z" />
	<path id="zoomcity_4" region='3' choosen="false" d="M273248.5 -261701.3l6797 -6921.4l3540.5 6536l13802 1685.1l1090.9 888.5l-4878.9 4798.7l1677.8 5131l3616.8 6197.9l-8049 5420.3l-3852.7 13220.7l-7315.5 -905l-2122.7 -4650.1l-1933.6 -1497.9l3696.1 -9612l-3862.9 1128.7l-14124 -12067.8l1849.7 -2115.6l3999.2 -6256.4l6069.4 -980.7z" />
	<path id="zoomcity_5" region='4' choosen="false" d="M357418.5 -275856.9l-1019.7 -2484.1l10657 3530.4l2926.2 12842.9l8017.1 697.9l-1396.2 2579.6l-2461.3 6376l-12327.1 1666.8l-2086.4 4716l-6529 -4710.1l-1154.9 -5088.5l3806 -7527.7l3217 -1029.1l-1648.8 -11570z" />
	<path id="zoomcity_6" region='4' choosen="false" d="M410488.8 -242530.5l-2618.4 1834l-3736.7 -1710.6l105 -4399.9l-6916.1 -2403.1l-8580.6 2675.1l-1503.4 4744.6l560.3 2008.1l-2452.9 -1065.7l-7241.6 -11245.9l3789.3 -10449.1l4414.8 -10672.2l6046.7 1683.2l-2137.3 -8795.7l2955.8 -657.8l628.6 -4977.5l2744 2990.9l8485.4 -5903.6l7960.4 23521.9l4353.4 718.8l1571.9 -2971.7l2544.5 3967.9l5998 513.8l-5638.4 21353.8l-8356 -2991.3l-2976.6 2232z" />
	<path id="zoomcity_7" region='8' choosen="false" d="M217741 -314088.3l-234.9 -728.5l2986.3 -1689.9l2759.1 2429.4l-911.7 4860.6l3807.9 2124.3l-1224.4 2236.4l-6881.3 -864l-301.1 -8368.3z" />
	<path id="zoomcity_8" region='4' choosen="false" d="M315095.9 -257189.9l8426.5 1619.6l1981.4 -6455.5l7306.1 1821.8l910.9 1678.9l-5384.2 980.8l-3092.9 5346.7l4360.4 6501.5l-7399.1 70.6l4791 6713.5l-2867.2 3454.4l-763.9 -70.5l-719.8 -3383.9l-4445.1 -1346.1l-13278.5 181.1l4004.9 -3781.6l-3745.7 -9762.6l1125.6 -4635.7l6759.6 4174.6l2030.1 -3107.8z" />
	<path id="zoomcity_9" region='1' choosen="false" d="M318224 -569052l20477.2 42515.8l-8565.8 4939.1l-3894.9 -1517.9l-1629.3 -5445.4l-4875.3 2063.1l-1298.7 -3603.2l-3152.4 398.8l-927.2 -7259l-4134 489.9l-91.5 -4308.1l-4996 -1522.1l6751 -6486l2287 -18105l4050 -2160z" />
	<path id="zoomcity_10" region='3' choosen="false" d="M330059 -177324.8l-366.2 3368.6l-983.3 -614.5l-2588.3 1820.2l-886.9 -404.8l-1667.1 4460.9l3101.9 -877.1l929.1 -2625.9l4650.5 -1300.7l-777.9 -919.4l278.9 -887.2l884.3 -330l499 835.9l792.6 -1415.2l1188.9 1092.5l-587.1 1165.9l645.8 293.3l-2076.9 626.1l4002.5 3627.3l-8642.4 2402l3242.4 2286l-2327.6 473.5l-6641.7 3586.8l-2446 -2639l-4019.7 6933l-538.9 -4493.5l-4104.4 -666.3l-2455.9 1186.8l677.8 4636.5l-4241.4 -1537.1l-2126.5 2323.3l-1260.8 -3775.5l1218.3 -6367.7l3394.9 -871l1172.1 -7076.7l2211.5 -7222.4l12581.6 -1458.7l4183.7 4340.2l3083 24z" />
	<path id="zoomcity_11" region='2' choosen="false" d="M176540.8 -459988.6l-5135.3 -6467.4l8576.1 -450.8l2158.2 -3634.4l7752.2 2090l3843.8 -3334.8l-1917.4 8685.8l7383.2 -1017.7l-598.1 3715.7l-30.1 1045.8l-528.2 301.2l-21 -0l-294 273.4l-290.3 -99.9l-2159.2 -2958.4l-3697.1 1116.2l-5.6 -0l-316.3 4433l-1731.9 1992.2l-2165.5 1805.5l-4658.9 -3269.2l-6164.8 -4226.3z" />
	<path id="zoomcity_12" region='6' choosen="false" d="M171355.3 -205051.4l-3733.9 2718.2l-3686.3 -1790.1l-1138.8 3352.8l-5643.3 -361.5l-4709.5 -8627.6l1414.1 -2539.1l-4097 -2314.7l3378.7 -10296.8l16972.2 -5388.8l4522.5 -45.8l65.2 -54.3l3838.7 289.7l741.4 11333.3l-3098.8 2085.6l1400.1 3694.8l-6225.5 7944.5z" />
	<path id="zoomcity_13" region='5' choosen="false" d="M249282.7 -105697.8l-2170.5 3011.2l-5719.8 -2812.5l311.8 -3250.2l7578.4 3051.6zM219089.8 -103519.5l-6190.6 992.2l-3667.8 -2894.8l1226.3 -4833.6l11418 1512l-2785.9 5224.2zM241820.7 -116463.5l1660.2 3522.9l3029.4 2538.3l-5037.8 1354.3l348.2 -7415.5zM242872.7 -113018.8l45.6 240l115.8 -134.7l-161.4 -105.3zM242499.7 -112507.6l69.3 71.7l40 -78.3l-109.3 6.6zM235718 -143558.7l-1077 6949.8l1630.8 2254.7l443.3 -168.8l1017 461.5l189.7 -293.7l731.8 609.6l1118.7 -1.1l900.1 1215.4l38.7 -723.3l761.8 69.8l-897.5 1558l-3807 -2269.3l3995.6 4478.8l2934.6 -1074.4l1342.7 3150.8l-2868.2 278.2l4389.4 5381.3l-10347.8 646l808 1971.6l2331.7 376.8l-3037.9 678.3l3834.2 1202.2l-1461.1 2026l794 1912.7l-1603.1 -903.2l-853.5 1824.7l-2380.7 107.1l409.8 2824.9l-3851.5 -1185.2l-1114 5322.7l-6351.8 -7934.4l-13530.2 -3717.6l8329.1 -11649.4l-1541.2 6160.3l3676.9 1288l2271.8 -14132.6l2711 -749.9l-116 5067.4l3225.7 854.3l2672.1 -4922.3l-1579.2 -4662.7l-6093.3 2130.3l-1506.8 -4703.7l8831.7 -5891.3l4627.6 4182zM237149.8 -134266.8l121.9 138.6l42.5 -99.2l-164.4 -39.4zM243787.3 -129168.2l129.3 44.6l-66 -159.3l-63.2 114.7zM221244.2 -124159.7l259.8 330.1l16.5 -119.3l-276.3 -210.8zM235501.5 -111972.5l77.4 30.1l-9.9 -133.2l-67.4 103z" />
	<path id="zoomcity_14" region='5' choosen="false" d="M211649.8 -200914.9l5195.7 -3187.3l18047.2 3600.5l1739.1 7652l-3305.4 1122.7l3616.3 3886.2l476.9 4745.7l-8082.4 8549l-11394.2 -6952.5l-826.7 -8771.7l-6545.4 1880.6l-3279.3 -5929.7l1427.4 -5948.3l2930.8 -647.1z" />
	<path id="zoomcity_15" region='8' choosen="false" d="M199270.3 -349716.4l1510.3 -825.1l9105 -315.5l3511 4262.3l5537.9 4649.7l-16 4982.3l-1195.7 5936.8l3201 6692.9l4946.5 22.3l-936.6 3481.4l-1682.2 6752l-2759.1 -2429.4l-2986.3 1689.9l-3944.1 2361.6l-4053.6 -3019.6l-3669.4 6997.2l-6535.4 -2441.7l-1552.2 -4045.9l3987.1 -11404.7l-4104.1 -3178.1l-5233.4 1251.7l-2871.2 -6204.5l1356.7 -5266.7l6160.6 -13364.7l2223.2 3415.8z" />
	<path id="zoomcity_16" region='2' choosen="false" d="M196551 -436732l114.3 -926l2258.1 -1894.4l2437.6 307.1l2770.4 2718.1l-511.9 1691.3l-5084.8 1465.3l-147.9 195.5l-196 -263.2l-12.5 0l-1627.3 -3293.5z" />
	<path id="zoomcity_17" region='2' choosen="false" d="M185575.8 -439429.9l-1042.5 -278l661.3 -1940.9l3657.4 -935.2l1006.1 3148.4l1265.5 2184.2l-2056.9 3743l-27 173l-3464 -6094.4z" />
	<path id="zoomcity_18" region='5' choosen="false" d="M266725.5 -161712.5l366.6 4992.9l-2905.2 -2223.8l2538.6 -2769.2zM270939 -165743.6l-2113.4 2888.5l-2339.9 -92l-5003.4 6316.5l-4674.8 185.1l-1617.5 -3661l-2372.6 2173.4l-4229.1 -20810.3l6288.5 -1317l1953.4 -7373l8556.4 11280.7l4485.9 3049.1l1066.5 7360.1z" />
	<path id="zoomcity_19" region='2' choosen="false" d="M221006 -441440.4l4349.6 -4294.9l1724.8 -324.9l5156.6 -1406.2l3156.5 11918.5l3735.1 6968.6l-2804.5 2935.4l-6344 6858.5l-5574.2 -321.8l465.2 -8048.8l-12859.1 746.3l2653.9 -4518.3l32.5 0l1247.4 -10321.5l5060.2 -191z" />
	<path id="zoomcity_20" region='0' choosen="false" d="M177888.7 -195477.7l2579.2 4018.8l4570.2 -755l3926.8 -2482.2l4587.7 -44.1l3519.8 7877.9l4367.2 173.6l-560.1 5059.8l-1175 2130.5l-4172.6 4607.2l-2971.5 -2054.2l-2478.4 1481l-6848.4 2875.4l-4205.5 -1985.2l-3535.6 -4863.7l-6997.1 -166.4l-161 -8584.6l6129.3 -2603.2l3425 -4685.5z" />
	<path id="zoomcity_21" region='9' choosen="false" d="M269719 -375649l475 -6382.1l14492.5 5474.3l2890.6 7885.9l6892.8 -228.2l-2342.9 7665.7l3542.1 4485.5l-9877.9 -3202.2l-2870.4 5204l-4577.1 945.1l4936.5 1849.9l-1027.2 6813.7l-3662.2 -5927.2l-1809 4935.3l-5415.8 1263.1l-2561.3 -182.9l-9480.1 -13875.4l-3701.7 -3366.2l1195.6 -9658.9l5049 -3666.3l7851.6 -33.1z" />
	<path id="zoomcity_22" region='5' choosen="false" d="M236241.4 -201576.1l6560 -5991.6l9641.2 6350.8l4387.6 13783.6l-1953.4 7373l-6288.5 1317l-11645.5 -9097.2l-3616.3 -3886.2l3305.4 -1122.7l-1739.1 -7652l1348.8 -1074.5z" />
	<path id="zoomcity_23" region='2' choosen="false" d="M209438.4 -457576.7l-175.4 -38.5l477.8 -2395.5l3450.2 294.9l1289.1 6678.5l-4558.2 2136.6l-1075.3 -1467l591.8 -5208.9z" />
	<path id="zoomcity_24" region='4' choosen="false" d="M311194.5 -316562.1l4879.3 -546.9l1562 1943.5l3569.9 -2371.4l5507.7 6973.6l2767.4 7673.4l3965.4 -1846.2l1806.7 5423.8l1742.3 -1778l3048.2 2473.9l626.7 7357.2l-6577.5 -1396.8l-1670.2 4189.7l-713.2 2009.4l-5860 -2416.7l-3273.1 3545.2l-6175.8 -3282.9l-2127.3 -11542.6l-12155.4 -6716.3l1599.4 -4245.5l6558.8 -1028.5l918.8 -4417.9z" />
	<path id="zoomcity_25" region='6' choosen="false" d="M167711.4 -275454.9l8310.5 -2410.1l11615.3 -6602.7l263.3 729.8l4383 6356.1l-5569.4 8866.6l-1474.1 577.3l-20273 2766.5l-91.6 -294.4l268.3 -252.7l-383.2 -2836.7l537.3 -2723.1l-6225.9 -3119.1l8639.5 -1057.4z" />
	<path id="zoomcity_26" region='4' choosen="false" d="M329128.9 -312777.1l1422.3 -2223.3l16382.6 6996l2.4 5830.9l22304.2 713.7l1278.1 2812.5l-113.2 1683.3l-8070.3 8157.6l-5271.7 -2451.2l-4309.4 10383.9l-4914.9 721.4l-1050.3 -7401.6l-5460.1 1964.9l-658.5 -5670.4l-626.7 -7357.2l-3048.2 -2473.9l-1742.3 1778l-1806.7 -5423.8l-3965.4 1846.2l-2767.4 -7673.4l2415.6 -2213.8z" />
	<path id="zoomcity_27" region='2' choosen="false" d="M189808.7 -426376.2l1017.3 -2075.1l3862.3 -2334l1887.4 1951.2l-2799.6 6094.8l-4738.1 -1220.6l623 -2256.7l147.6 -159.6z" />
	<path id="zoomcity_28" region='8' choosen="false" d="M231501.4 -301012.2l1889.1 -6991.6l1349.7 2494.5l3169.4 4576.3l2347.5 1322.7l3967.1 -4658.9l8134.2 701.9l1373.4 5208.3l-678.4 5610.5l4327.9 7237.9l-891.2 4243.1l-1310.6 3243l-7340.6 -4408.7l-590.3 6169.8l-6199.6 229.2l-1960.9 -5076.9l-5103.2 775.9l-4981.8 -11885.2l738.1 -6020.3l1760.2 -2771.4z" />
	<path id="zoomcity_29" region='6' choosen="false" d="M173698.3 -261909.4l7186.1 -910.5l4355.5 -5118l1474.1 -577.3l13021.1 3680.9l692 2404.2l-554.8 5364.9l6013.4 2542l-1303.6 3451.7l3051.1 3462.5l-1901 5628.2l-3884.2 946.5l-13401.7 -9893.9l-4329.9 4875.5l-4336.4 -4817.7l199.7 -5590.6l-8466.3 -3837.6l2184.8 -1610.8z" />
	<path id="zoomcity_30" region='4' choosen="false" d="M300576.5 -305445.1l1541 -1425.3l12155.4 6716.3l2127.3 11542.6l-301.1 5335.5l-8304.3 406.7l-2914.2 900.3l-1145.8 7352.2l-4903.7 1340.8l-811.3 3681.6l-3625.2 -1147.9l2993.4 10340.5l-13802 -1685.1l-3540.5 -6536l2117.3 -3889.2l-3189.1 -8070.9l7563.2 -5170.3l3127.7 -9630.7l-1537.6 -4790.8l7416.1 -189.8l-1724.1 -5916.4l6757.5 835.9z" />
	<path id="zoomcity_31" region='2' choosen="false" d="M178007.8 -453059.7l-2353.6 -1386.1l-6404.1 -5313.8l-7070.7 5731.3l-3816.5 -7254l-211.4 -9448.7l-992.9 -3208.1l8355.6 1597.5l5083 -3488.6l808.2 9374.3l5135.3 6467.4l6164.8 4226.3l-1000 2485.9l-3697.8 216.6z" />
	<path id="zoomcity_32" region='3' choosen="false" d="M354522.1 -200792.3l5597.4 -5958.9l9963.8 -3860.9l12971.5 11650.9l-1278.6 4343.2l-10286.8 2499.7l-854.3 7046.6l-7276.2 -610.9l-4797.2 -1020.3l-4039.6 -14089.5z" />
	<path id="zoomcity_33" region='5' choosen="false" d="M165575.5 -176497.3l2919.9 -3107.1l6997.1 166.4l3535.6 4863.7l4205.5 1985.2l6848.4 -2875.4l-1605.4 19987.1l-4652.6 2973.2l-9022.9 -2072.1l-4465.4 -6303.2l-128 7340.5l-6372.2 -5581.7l-4765 7413.2l-3595.6 -6208l2587.9 -82.5l-73.8 -6138.3l5299 -2280.9l-413.6 -11296.5l2701.1 1216.2z" />
	<path id="zoomcity_34" region='2' choosen="false" d="M221975.4 -473747.7l1434.7 -1611.6l5951.5 3045.6l3321.5 11603.2l-5602.6 14650.3l-1724.8 324.9l-7736.4 -8542.6l-3139.2 1240.5l-1289.1 -6678.5l-3450.2 -294.9l-2599.1 -5987.1l5717.4 -6495.3l9116.2 -1254.6z" />
	<path id="zoomcity_35" region='6' choosen="false" d="M231474.1 -226998.4l1407 -1783.2l11325 2353.1l5187.3 7593.2l3611.9 -9638.5l3940.8 2065.6l798.6 8476l3271.3 1704.8l-5621.5 8631.1l939.8 3763.2l-3891.4 2616.2l-9641.2 -6350.8l-6560 5991.6l-1348.8 1074.5l-18047.2 -3600.5l11093.8 -15723.2l4309.7 -2521.5l-774.9 -4651.5z" />
	<path id="zoomcity_36" region='3' choosen="false" d="M294358 -158345.1l-1970.2 5725.5l3327.5 -3258.5l2967.9 7639.8l-10106 -1572.8l3368.9 -8512.7l2411.9 -21.1zM293784.6 -149981.5l445.2 405l25.4 -261.4l-470.6 -143.6zM282017.3 -153275.3l4310.1 7189.3l4341.2 -2665.2l6850.5 1617l-2819 10501.1l2396 1609.3l-3772.9 871.9l-523.3 -2480.2l-5269.6 1661.5l-721.6 -7519.2l-4109.4 1326.9l-1106.5 4928.1l-5101 -3169.3l-2813.3 -11856.7l5899.8 -9736.1l4910.2 416.4l1360.4 3269.6l-3831.7 4035.3zM284135.6 -149177.6l8.9 44l79.9 -52.6l-88.8 8.6zM276063.8 -143523.9l29.6 311l161.1 -116.2l-190.8 -194.8zM276813.4 -142297.3l8.7 188.1l344.2 -271.1l-352.9 83zM276456.2 -141035.6l129.7 201.9l-74.5 -190.4l-55.2 -11.6zM276352.9 -140667.8l206.4 147l194 -43.1l-400.4 -103.9z" />
	<path id="zoomcity_37" region='8' choosen="false" d="M213562 -312455.2l3944.1 -2361.6l234.9 728.5l301.1 8368.3l6881.3 864l4817.8 6615.2l-738.1 6020.3l-6399.3 1902.8l216.7 3263.4l-4435.3 -1852.3l-6754 3876.6l-6174 -3083.3l-1605.3 -5941.3l-3613.8 -232.2l-1735.1 -6521.8l7335.9 -7669.3l3669.4 -6997.2l4053.6 3019.6z" />
	<path id="zoomcity_38" region='9' choosen="false" d="M320703.7 -406212.8l2083.4 -1199.8l3802.1 6394.5l5774 -2360.8l14514.4 6132.5l-7425.5 3563l-1716.1 4507.7l-9337.8 7500.7l-1524.1 5756.8l2302.3 2999.8l-1202.8 1590.7l-6081.3 3875l-11230.8 -7856l2076.3 -9778.4l-4468.3 -10337.4l4831.9 -7057.4l2796.9 1808.3l-607.8 -3712l5413 -1827.1z" />
	<path id="zoomcity_39" region='5' choosen="false" d="M196599.1 -210585.4l3329 -7411.9l3141.8 -469.5l1662.9 4337.9l-2327.5 3525.9l3908.3 3193.8l-2447.4 4922.8l4852.9 2218.5l-1427.4 5948.3l3279.3 5929.7l-4511.7 2139l2004.6 5516.6l-7184.3 -894.8l560.1 -5059.8l-4367.2 -173.6l-3519.8 -7877.9l-4587.7 44.1l-1642.8 -7738.8l5301.1 -8952.7l3976 802.1z" />
	<path id="zoomcity_40" region='8' choosen="false" d="M155192.3 -374511.9l-1893.6 -3817.8l921.4 -8593.7l-2914.7 -4765.4l2725.5 -4113.5l13815.4 7245.7l12719.7 2524.4l5730.7 12544.6l-731.5 3744.4l1794.3 3944.3l-2306.3 1131.9l-5190.2 3886.2l-5492.7 -6140.8l-5370.9 3131.1l-5160.3 -6568.2l-6188.8 781.1l-2458.1 -4934.3z" />
	<path id="zoomcity_41" region='0' choosen="false" d="M357418.5 -275856.9l1648.8 11570l-3217 1029.1l-3806 7527.7l1154.9 5088.5l-4961 4291.2l-2771 -3627.6l-6507.2 2590.7l-849.9 3819.6l-2396 4901.5l-11585.4 3208.6l2867.2 -3454.4l-4791 -6713.5l7399.1 -70.6l-4360.4 -6501.5l3092.9 -5346.7l5384.2 -980.8l-910.9 -1678.9l-7306.1 -1821.8l276.1 -3629.9l5328.4 -6747.4l4631.4 5762l2069.3 -10004.2l2406.2 1674l4348.5 -2681.4l1122.2 -1623.5l2153 -876.1l4914.9 -721.4l3645 2532.7l1019.7 2484.1z" />
	<path id="zoomcity_42" region='0' choosen="false" d="M236020.6 -328378.5l4538 600.7l2756.7 -3066.9l480.5 4981.6l1885.4 3273.9l491.2 -2130.9l3473.8 3039.7l-4716.8 6242.5l-705.2 11168.7l-3967.1 4658.9l-2347.5 -1322.7l-3169.4 -4576.3l-1349.7 -2494.5l-1889.1 6991.6l-1760.2 2771.4l-4817.8 -6615.2l1224.4 -2236.4l-3807.9 -2124.3l911.7 -4860.6l1682.2 -6752l936.6 -3481.4l4610.7 -1304l5374.8 -6286l164.8 3522.1z" />
	<path id="zoomcity_43" region='2' choosen="false" d="M205375.6 -485164.8l-4561.3 -6491.2l3796 -5969.2l3379.4 1096l5632.1 8402.4l-4082.5 3982l-4163.7 -1020z" />
	<path id="zoomcity_44" region='1' choosen="false" d="M380707.8 -451249.7l2284.5 -6739.8l8009.5 14183.3l-13635.1 5873.1l-4200.1 -2154.2l2828.9 -4251.3l-1658.4 -5457.6l6370.7 -1453.5z" />
	<path id="zoomcity_45" region='5' choosen="false" d="M150005.6 -146309.8l393.2 2313.3l-1297.6 94.2l-7936.9 -283.9l4991.7 -5440.8l3849.6 3317.3z" />
	<path id="zoomcity_46" region='5' choosen="false" d="M139999.5 -181527.9l-953.9 4190l3451.5 3489.7l2533.4 -2345.2l348.4 6247.6l5025.8 -5218.9l847.3 5532.4l6736.9 5496.2l73.8 6138.3l-2587.9 82.5l3595.6 6208l-3920.8 9868.9l-4750.9 -2158l-393.2 -2313.3l-3849.6 -3317.3l-3408.2 -17184.8l-471.3 8765.2l-1448.2 -290.7l-872.6 913l-1316 -233.5l-262.3 -1628.1l-1818.4 299.7l-1037.5 -4167l5763 -2062.8l-2274.1 -1087.7l5131.9 -3366.4l-55.7 -1326.5l-657.9 -1316l-2670 1028.8l-2630.2 -5569.7l-1774 4937.8l-3742.7 -1078.8l-1283.8 -4826.4l2168.3 -5904.7l4294.1 2147.2l2541.3 -3129.9l-332.3 3180.5z" />
	<path id="zoomcity_47" region='6' choosen="false" d="M256490 -281267.6l891.2 -4243.1l11486.8 6162.9l7605.3 -3124l2500.4 1889l3189.1 8070.9l-2117.3 3889.2l-6797 6921.4l-6069.4 980.7l-3999.2 6256.4l-7255.5 -5663.4l-8675.8 -16135.9l590.3 -6169.8l7340.6 4408.7l1310.6 -3243z" />
	<path id="zoomcity_48" region='4' choosen="false" d="M308177.6 -371957.2l2484.1 -3351.5l11230.8 7856l-3939 13636.5l2691.6 2998.8l-3646.1 -536.6l-4166.1 5059.5l3103.7 3936.2l-2393.1 4726.5l-4127.1 75.4l-337.2 -4450l-8638.9 -5028.6l-4269.2 1580.7l-1685.4 6439.5l-6572.1 317.1l-435.5 3538.5l-4132.7 -2042.5l-1092.3 -7935.7l1027.2 -6813.7l-4936.5 -1849.9l4577.1 -945.1l2870.4 -5204l9877.9 3202.2l-3542.1 -4485.5l2342.9 -7665.7l2956.4 2221.8l3584 -3869.9l7454.6 1919.2l-287.4 -3329.3z" />
	<path id="zoomcity_49" region='3' choosen="false" d="M369491.2 -237070l4357.8 -3206l5413.5 4197.4l2169 -1357.6l1611.4 3918.3l-4419 2744.3l2210.7 3469.2l-988.5 1762.8l-2821.8 1469.8l1475 4263.2l-5144.6 1996.5l1286.3 2581.9l-4557.7 4618.1l-9963.8 3860.9l-9684.5 -2634.9l-916.9 -6385.5l-6764.8 -4506.6l1600.8 -12505.3l8620.4 -1337.4l8839.3 3090.4l7677.4 -6039.5z" />
	<path id="zoomcity_50" region='8' choosen="false" d="M149146.4 -320688.2l2173 3494l-6603.8 -2903.5l4430.8 -590.4zM172255.6 -298901.8l-11371.1 218.5l-3586.5 -3489.4l1872.4 -5496.7l-4090.7 -6201.3l5474.6 -2971.8l-7335 -3647l933.8 -14822.3l9062.1 1028.1l1040.8 3493l6372.3 1716l4360.3 9433.7l239.9 283.4l-2576.8 4262.4l-33.4 7593.7l3760.6 1902.9l-4123.3 6697z" />
	<path id="zoomcity_51" region='5' choosen="false" d="M200327.3 -136867.9l3023.4 -11951.4l4670.8 -3827.1l32.8 -7048.3l7845.5 -4654.5l2406.5 -1147.8l4714.2 11495.7l4699.5 -1827.5l10345.6 7546l-5801.7 -707.3l6824.4 2797.2l-3370.3 2634.2l-4627.6 -4182l-8831.7 5891.3l-5401 8965.8l-5157.4 -1262.7l-7520.7 6829.4l-6008.1 -4688.9l2155.8 -4862.1z" />
	<path id="zoomcity_52" region='9' choosen="false" d="M254871.9 -339559.5l2877.6 -5685.2l9011.3 2273l2043.9 -2077.4l2561.3 182.9l9347.8 8160.3l-2511.8 4637.4l665.2 12748.6l-13626.3 -2018.4l-5665.4 -5991.4l-9770.6 5876.4l-158.7 -227.2l-3473.8 -3039.7l5407.7 -7592.7l-1035.9 -4439.6l4327.6 -2807.1z" />
	<path id="zoomcity_53" region='4' choosen="false" d="M383312.6 -398000.4l2934.3 -3909l8119.4 6300.1l-8984.2 3987.3l-387.6 5681l5832.2 3798.7l1254.8 4818.9l-6544.4 6699.6l-8467.1 5285.6l603.1 2856.2l-13437.1 -6634.5l-2572.7 1561.2l-792.9 -3032.1l-5338.7 3089.4l-1641.8 -7746.1l-5519.4 2830l-2479.5 -5054.6l6083.3 -16955.9l4704.5 358.3l1488.4 -6366.1l8369.8 5138.8l3241.9 -2538.2l2772.7 -3211.8l10761.3 3043.2z" />
	<path id="zoomcity_54" region='0' choosen="false" d="M369494.6 -175491.4l-2721.9 8506.4l-2934.4 -7259.3l3680.4 -2412l1975.9 1164.9zM388544 -179392l2287.5 4864.5l-5426.2 -3937.4l3138.7 -927.1zM405761.1 -212018.5l3691.7 6206.5l-3520.2 1269.2l-4905.4 15277.1l-2342.4 3134.4l-4458.2 -676.5l-1864.5 2928.8l1345.8 3855.6l-2785.2 233.5l-2742 -3328.5l-2014.5 2139.8l-545.2 1700l-927.1 0l-7.3 852.5l-1506.2 4188l-433.5 -3087.9l-1044.8 -581.3l594.5 3892.1l-2398.7 -832.9l882.3 967.6l-1145.3 54.9l-448.2 1301.9l-2694.8 -8108.8l-2862.5 2943.8l-437.2 -3980.5l-1579 6601.5l-5480.1 -4200.7l1806.9 -1626l-4581.1 -4788l7276.2 610.9l854.3 -7046.6l10286.8 -2499.7l1278.6 -4343.2l3438.7 -822.9l5250.7 -2887l1900.8 -6766.4l4448.7 1279l2002.4 -3887.5l5665 27.3z" />
	<path id="zoomcity_55" region='6' choosen="false" d="M137964.2 -234831.2l-4447.4 4864.2l-314.7 -3179.9l4762 -1684.3zM176743.9 -240790.7l-2044.6 10391.4l-65.2 54.3l-4522.5 45.8l-3103.4 -3111.4l-11619.6 2250.1l-4729.4 -6399.9l2119.2 -897.7l447.5 -1190.9l1754 -412l2236.8 -1961.9l433.4 -1506l5571.4 -2375.9l3473.3 -9749.6l8670.4 727.8l4415 4056.2l4336.4 4817.7l950.3 2636.3l-8323 2625.8z" />
	<path id="zoomcity_56" region='8' choosen="false" d="M172651.6 -315095.2l2576.8 -4262.4l6237.6 2543.3l4885.5 -3851.2l1238.3 7002.2l10161.6 -1302l1552.2 4045.9l6535.4 2441.7l-7335.9 7669.3l1735.1 6521.8l-10002 927.7l-2008.8 7928.4l-6845.6 -7524.9l-75.4 -4880.3l-9050.9 -1066l4123.3 -6697l-3760.6 -1902.9l33.4 -7593.7z" />
	<path id="zoomcity_57" region='2' choosen="false" d="M177149.8 -442953.2l1594.7 -3947.4l660.3 -3338.2l2372.7 2051.5l2434.5 -541.6l227.3 3595.1l-468.2 3108.6l1223.6 376.6l-661.3 1940.9l-4226.3 -1385.4l-922.3 2.8l-2235 -1862.8z" />
	<path id="zoomcity_58" region='3' choosen="false" d="M306827.1 -165931.2l-3394.9 871l-1218.3 6367.7l-7861.4 238.5l1917.1 -18531.9l-3155.6 6577.8l-4095 -508.8l3899.6 2502.9l-938.8 3124.2l-997.2 -1506.2l-1284.9 2272.5l-1028.2 -2002.3l-766.5 -65l-2039.8 1747.2l-1731.6 -3889.1l-4052.9 -14601.8l5716.5 -1120l4865.3 12.4l1345.4 4789.5l3646.7 -2236.7l3763.5 3357.4l5004 -1639.9l3579.3 7164l-1172.1 7076.7zM285097.1 -167618.6l57.3 -29l-75.3 -122.6l18 151.6zM285383.1 -167391.5l110.4 -107l-130.4 -68l19.9 175zM285097.3 -167282.8l100.4 -164.5l-74.6 -108l-25.8 272.5zM285017.7 -166858.6l-2.7 -169.6l-61.3 99.9l64.1 69.6zM298432.1 -158704.3l152.1 -96.1l-121.7 -29.7l-30.3 125.8zM295320.3 -158591.2l194.2 -76.1l-247.2 -126.9l53 202.9z" />
	<path id="zoomcity_59" region='3' choosen="false" d="M276315.6 -228098.1l1239 -2201.4l2122.7 4650.1l7315.5 905l2539.5 8090.7l6051.6 3026.3l2521.7 5242l3170.8 4322.5l-538.4 90.6l-4549.4 -347.9l-8239 9749.3l-6970.7 2293.2l-2408.8 -3657.2l-1811.7 3685.1l-6210.2 814.1l-6467.2 -4947.2l-1520 -6030l3823.2 -2031.2l9931.5 -23654.1z" />
	<path id="zoomcity_60" region='1' choosen="false" d="M373164.2 -425451.2l-3858.8 11027.2l-5557.4 -15350.5l4602.7 -9187l4815.9 -1125.7l4200.1 2154.2l13635.1 -5873.1l17379.7 24952.8l1594 11288.9l-8109.3 3460l-4009.2 4936.3l1246.9 3794.4l-4737.6 -235.4l-8119.4 -6300.1l-789.8 -6408.2l-8349.2 -5364.6l1331.1 -14509.7l-5274.8 2740.8z" />
	<path id="zoomcity_61" region='4' choosen="false" d="M296171 -345454.3l4269.2 -1580.7l8638.9 5028.6l337.2 4450l4127.1 -75.4l-672.1 6084.5l4750.2 2365.8l2443.3 5620.6l-3991 6451.9l-4879.3 546.9l-918.8 4417.9l-6558.8 1028.5l-1599.4 4245.5l-1541 1425.3l-6757.5 -835.9l-3111.9 -2127.5l-4475.7 2233.6l-5007.8 -5494.9l-4789.5 3186.3l-625.9 -4678.5l3058.9 -6157.9l-665.2 -12748.6l2511.8 -4637.4l-9347.8 -8160.3l5415.8 -1263.1l1809 -4935.3l3662.2 5927.2l1092.3 7935.7l4132.7 2042.5l435.5 -3538.5l6572.1 -317.1l1685.4 -6439.5z" />
	<path id="zoomcity_62" region='7' choosen="false" d="M190930.4 1446.7l-1.6 421.3l576.9 -17.5l280.2 719.5l95.2 -291.8l69.9 64l293.3 69.9l-196.2 54.3l93.2 133.9l283 -212.4l190.4 108.7l-83.5 473.6l1452.7 -886.5l1143.7 2205l-3554.2 5124.3l-7020 11470.1l-19657.1 6155.9l-2422.6 1792.5l-21432.6 465.8l-4469.2 -872.3l-4571.7 4886.8l-9567.5 -9796.6l2229.7 -1841.5l4895.2 2841.3l9114.7 -7691.2l8505 408.7l8951.5 -2370.7l948.3 -301.1l1732.4 -743.6l32120.8 -12370.6zM159969.6 28387l642.4 409.3l-185.4 -600.9l-457 191.5zM161004.8 28360.9l-67 464.4l511 -202l-443.9 -262.4zM158307.4 28915.2l139.6 -233.5l-507.1 -70.2l367.5 303.7zM158352 28570.7l102.1 81.7l-38.3 -83.9l-63.8 2.2z" />
	<path id="zoomcity_63" region='8' choosen="false" d="M164336.9 -355155.1l-1131.2 3685.1l-7034 3621.8l-4004.4 -1482l-1294.1 -5517.2l-2493.3 10344.2l-4456.4 -1852l-2412.2 -11603.1l-970 -10426.5l-519.8 -5133.1l3288.2 3540.5l-840.2 -2134.7l1303.1 -931.2l-538.6 -2242.7l6007.3 -2581.4l-2058.7 -882.9l235.9 -2859.4l-2172.9 513.9l-1122.9 -1849.5l-1258.1 903.1l-847.2 -2548l-1401.2 142.9l462.1 -5719.4l10114.6 746.7l2105.9 11090.2l1893.6 3817.8l2458.1 4934.3l6188.8 -781.1l5160.3 6568.2l-762.7 2567.6l-3899.8 6067.7z" />
	<path id="zoomcity_64" region='0' choosen="false" d="M201328 -466510.8l3081.3 1553.3l2732.4 -1040.3l2599.1 5987.1l-477.8 2395.5l175.4 38.5l-591.8 5208.9l1075.3 1467l4558.2 -2136.6l1671.2 3736.7l-3401.7 3215.4l-34.5 -5.6l-305.6 1277.6l-99.9 3523.6l-826.9 644.9l-164.3 -0l-569.1 299.8l-489.7 735.3l-101.4 -0l-1706.4 -313l-1978.6 2702l-20.3 -0l-1882.3 956.8l-6.9 -0l-432.1 -263.6l-2770.4 -2718.1l-2437.6 -307.1l-2258.1 1894.4l-3039.7 -1015.3l-2502 1422l-1265.5 -2184.2l-1006.1 -3148.4l-3657.4 935.2l-1223.6 -376.6l468.2 -3108.6l-227.3 -3595.1l-2434.5 541.6l-2372.7 -2051.5l2300.9 -3037.5l1000 -2485.9l4658.9 3269.2l2165.5 -1805.5l1731.9 -1992.2l316.3 -4433l5.6 0l3697.1 -1116.2l2159.2 2958.4l290.3 99.9l294 -273.4l21 0l528.2 -301.2l30.1 -1045.8l598.1 -3715.7l1460.4 -578.5l666 -1814.5z" />
	<path id="zoomcity_65" region='8' choosen="false" d="M165020.6 -288440.6l-1848.7 -3562.3l-1890.5 -1427.2l-6859.8 499.4l3324.1 -6511.7l3138.9 759.2l11371.1 -218.5l9050.9 1066l75.4 4880.3l6845.6 7524.9l-590.3 962.8l-11615.3 6602.7l-6225 -430.2l106.5 -3122.6l-2042.3 -2553l-1335.3 161l134.6 -2532.8l-1106.1 -21.3l2349.4 -1838.9l-2883.1 -237.9zM166658.1 -284031.7l81.3 -114.4l-123.2 37.2l41.8 77.3z" />
	<path id="zoomcity_66" region='2' choosen="false" d="M202847 -431361.6l772.5 -3474.5l511.9 -1691.3l432.1 263.6l6.9 0l1882.3 -956.8l20.3 0l1978.6 -2702l1706.4 313l101.4 0l489.7 -735.3l569.1 -299.8l164.3 0l826.9 -644.9l3636.3 40.2l-1247.4 10321.5l-32.5 0l-2653.9 4518.3l-9606.9 -3599.1l441.9 -1352.9z" />
	<path id="zoomcity_67" region='4' choosen="false" d="M307794.8 -282869.2l8304.3 -406.7l5419.6 9720.9l4532.9 1675.4l-271.6 6224l-276.1 3629.9l-1981.4 6455.5l-8426.5 -1619.6l-2030.1 3107.8l-6759.6 -4174.6l-1125.6 4635.7l-6701.7 -5892.1l-1090.9 -888.5l-2993.4 -10340.5l3625.2 1147.9l811.3 -3681.6l4903.7 -1340.8l1145.8 -7352.2l2914.2 -900.3z" />
	<path id="zoomcity_68" region='1' choosen="false" d="M330135.3 -521597.1l8565.8 -4939.1l2255.9 7743.1l-12522.6 4822.6l-4093.8 -6384.6l1899.8 -2759.8l3894.9 1517.9z" />
	<path id="zoomcity_69" region='2' choosen="false" d="M193795.4 -417680.3l-306.4 -1970.8l496.7 -2691l7610.7 -5382.3l1223.9 713.8l5028.6 5527.9l-2002.4 6121.8l-8329.3 1276l-3721.7 -3595.3z" />
	<path id="zoomcity_70" region='6' choosen="false" d="M215657.9 -217712.4l2039.2 -3382.1l10242.2 1269.1l-11093.8 15723.2l-5195.7 3187.3l-2930.8 647.1l-4852.9 -2218.5l2447.4 -4922.8l-3908.3 -3193.8l2327.5 -3525.9l-1662.9 -4337.9l-3141.8 469.5l-3329 7411.9l-3976 -802.1l-4615.6 -6597.2l-612.9 -2100.5l6691.1 -134.1l-652.4 -4097.5l4244.8 -4149.8l10223.6 5309.6l7756.2 5444.6z" />
	<path id="zoomcity_71" region='5' choosen="false" d="M223020.5 -154001.3l-4714.2 -11495.7l-2406.5 1147.8l2043.2 -17149.4l11394.2 6952.5l8082.4 -8549l-476.9 -4745.7l11645.5 9097.2l4229.1 20810.3l729.4 3457.8l-4397.4 557.5l367.8 4381.7l-2773.3 -4190.4l-2389.1 4546.2l-6289.1 897.4l-10345.6 -7546l-4699.5 1827.5z" />
	<path id="zoomcity_72" region='2' choosen="false" d="M179660.9 -436970.6l646.2 -4122.6l4226.3 1385.4l1042.5 278l3464 6094.4l431 2867.8l-13802 6468.9l-3637.7 -3032.9l4569.9 -5593.9l3059.9 -4345.1z" />
	<path id="zoomcity_73" region='5' choosen="false" d="M95540.3 -123554.9l-4055.3 1289l-1361.3 -3434.9l4863.1 -659.3l553.6 2805.2zM114254.9 -126760.7l4158.6 5278.2l-5226.2 6405.3l-2774.3 -636l3258.1 -2073.2l-3165.5 -161.9l5037.6 -2438.1l-3130.7 -3464.8l1842.5 -2909.5zM115989.4 -124323.8l59.2 83.3l35.9 -188.2l-95.1 104.9zM126808.1 -126570.9l-6580 2387.5l-1199 -5726.3l6135.5 269.6l1643.5 3069.2zM114167.9 -120918.6l-4227.7 2107l-810 -7527.8l3487.4 -4191.4l-1016 6450.6l2566.2 3161.7zM126049.8 -134889.5l-1505.2 4129l-2130.2 -1771.4l1377.6 -994l727.1 305.9l1530.7 -1669.4zM109604.5 -135175.1l-4506.8 5960.4l-4732 -3488.9l4335.8 -5531.6l4903 3060.1zM126078 -137336.1l-6801.9 5394.2l-5134.9 -3344l1440.4 -7376.5l10496.4 5326.2zM107982.7 -145756.9l246 5169.2l-5235.4 753.2l-2137.5 4209.5l-2967.6 -1803.3l1131 -5514.7l8963.5 -2813.9zM105436.9 -144673.5l59.5 39.5l34 -42.8l-93.5 3.3zM101039.5 -143130.2l95.5 212.1l95.5 -668.1l-191.1 456zM123096.4 -147592.7l803.6 7360l-7990.4 -3642.6l3240.8 -294l3946.1 -3423.4zM122882.1 -152239.3l-5871.6 7686.7l-3203.2 -5954.6l4567.7 -12.1l547.2 -3660.6l3959.9 1940.6zM142118.4 -151164.1l-1055.4 4803.5l-2535.8 -4116.6l-9336.8 337.7l5280.6 -1718.4l1164 -6503.1l4950.7 3680.2l-3464.1 1101.5l4996.8 2415.1zM116288.5 -152040.7l-3838.3 2273.9l-7043.3 -3716.2l9501.4 -6747.7l3144.5 4227l-1764.2 3962.9zM113062.5 -150519.4l161 112.2l69.2 -155.1l-230.2 42.9zM129338.8 -165514.7l-3007.2 7881.4l55.7 -5488.8l2951.5 -2392.6zM120210.5 -170120.8l5545.4 4527.6l-2756.5 5371.3l-3094.4 -926.1l1002.6 -6006.4l-3404 19.1l2706.9 -2985.6zM125150.1 -172868.8l1361.7 4655.2l-2606 -2336.6l-3736.7 -1866l4981 -452.6zM132611.9 -172994.5l320.1 3489.1l-3389.8 501.3l381.1 -3940.6l-2499.5 1490.3l-261.9 -2462.6l-3748.5 -592.2l415.3 -1858l-750.3 -824l3032.8 -2410.4l5216.9 1780.8l1283.8 4826.4zM127980.3 -172979.4l40.7 150l61.4 -112.1l-102.1 -37.9zM123824.1 -183295.1l-5869 10959.3l-5900 -2102.9l836.5 -916.7l-458.7 -552.7l1106.3 -2028.7l-377.8 -644.4l2077.8 -215.7l1254.7 -758.9l2621.5 -3550.6l4708.7 -188.7zM122315.9 -181573.7l86 268.6l151.2 -291.8l-237.3 23.1z" />
	<path id="zoomcity_74" region='8' choosen="false" d="M185565.1 -369743.2l731.5 -3744.4l5500 -4675.6l14719.1 -3709.5l1587.6 4896.1l2458.2 14256.9l-9780.9 12178.2l-1510.3 825.1l-2223.2 -3415.8l-10787.5 -6912.9l-1206.4 -4621.8l2306.3 -1131.9l-1794.3 -3944.3z" />
	<path id="zoomcity_75" region='4' choosen="false" d="M355270.8 -366843.5l260.7 -654.4l5338.7 -3089.4l792.9 3032.1l2572.7 -1561.2l13437.1 6634.5l1147.5 17031.1l-1293.8 2277.4l-1095.3 25197.8l-6787.9 5580.3l-5641.2 -17046.2l-7515.5 -3995.8l-13069.2 9100.5l-4499.6 -8815.2l-5420.9 -3082.2l-2841.6 3304.6l-2712.7 -3676.9l5820.6 -8911.2l3024 -93.2l-502.9 -2934.4l7122.5 -2792.3l-712.6 -5572.1l3672 -2023.2l8220.5 2566.3l684.3 -10477z" />
	<path id="zoomcity_76" region='2' choosen="false" d="M166783 -415860.9l-955.1 3863.3l-7200 1146.2l3028.6 -4229.6l-3167.7 -5778.2l4063 -807l-828.2 2679.2l5059.3 3126.1zM165528.5 -414151.5l110.6 105.3l61.2 -269.4l-171.8 164.1zM165919.2 -414157.2l-161.4 580.6l289.2 -65l-127.7 -515.6zM193489 -419651.1l-6980.8 511.9l-1767.6 -3329.7l-9071.9 -1529.8l13802 -6468.9l1355.2 2016.4l-1017.3 2075.1l-147.6 159.6l-623 2256.7l4738.1 1220.6l209.6 397.1l-496.7 2691z" />
	<path id="zoomcity_77" region='2' choosen="false" d="M221415.5 -402271.1l1953.4 -3769.1l3734 5402.1l9821.4 1519.1l1190.9 -6070l7443.8 4652l-2047 5856.8l-3825.9 4656l-4681.3 1473l-758.8 4161.3l-7893.5 3458.7l-591.3 3968.9l-15190.5 -8325.3l3055.6 -3176.7l-76.8 -3524.5l-4248.7 -629l1569.6 -6233.9l5657.2 741l4888.1 -4160.3z" />
	<path id="zoomcity_78" region='2' choosen="false" d="M189066.8 -433508.4l2056.9 -3743l2502 -1422l3039.7 1015.3l-114.3 926l1627.3 3293.5l12.5 0l196 263.2l-1729.2 4306.6l-5.1 0l-76.8 34.6l-1887.4 -1951.2l-3862.3 2334l-1355.2 -2016.4l-431 -2867.8l27 -173z" />
	<path id="zoomcity_79" region='1' choosen="false" d="M278353.7 -510525.5l-6352.5 -25780.9l5245.8 -1897.6l14735 3264l6149.9 -3170.9l3740.3 4660.4l-5425.1 13114l1401.4 16151l-4610.1 -958.4l19.6 3601.8l-2763.3 135.7l-3427.9 1013.5l-3324.2 -4140.2l-1589.4 2834.7l-2909.2 -4030.4l-890.2 -4796.6z" />
	<path id="zoomcity_80" region='3' choosen="false" d="M379846.1 -225541.6l988.5 -1762.8l10235.7 3530.3l5526 6897l2783.1 -877.5l716.7 5708.7l-2002.4 3887.5l-4448.7 -1279l-1900.8 6766.4l-5250.7 2887l-3438.7 822.9l-12971.5 -11650.9l4557.7 -4618.1l-1286.3 -2581.9l5144.6 -1996.5l-1475 -4263.2l2821.8 -1469.8z" />
	<path id="zoomcity_81" region='1' choosen="false" d="M346765.9 -488333.6l-7103.4 2782.6l-9395 -3313.1l-1451 -6227l3972.1 -7074.4l-2410.7 -4515.7l-5334.5 559.9l-1940.6 -5201.5l5331.5 -2647.9l12522.6 -4822.6l18137.4 26619.6l-12328.6 3839.9z" />
	<path id="zoomcity_82" region='2' choosen="false" d="M191595 -479828.3l5994 -13433.3l3225.4 1605.6l4561.3 6491.2l4163.7 1020l-416.3 8900.1l-8991.8 1880.6l955.2 4734.6l241.8 2118.7l-666 1814.5l-1460.4 578.5l-7383.2 1017.7l1917.4 -8685.8l-2140.8 -8042.4z" />
	<path id="zoomcity_83" region='2' choosen="false" d="M243954.6 -452287.8l5461.5 -1278.3l-141.7 -5035.4l4242 -2533.2l8957.9 7111.6l7531.1 49.6l4985.2 3534.6l-7915.9 5564.2l3817 7552.3l-3684.1 7610.3l-5158.9 -718.6l543.7 -4087.7l-14202.1 183.4l-3503.1 -3303.9l-9493.8 2091.1l-3156.5 -11918.5l-5156.6 1406.2l5602.6 -14650.3l5020.4 -2613.7l6251.3 11036.4z" />
	<path id="zoomcity_84" region='5' choosen="false" d="M223787.6 -83739.1l39.1 4401.9l-3321.8 186.8l3282.6 -4588.7zM221730.8 -79644.2l42.7 235.4l104.5 -135.2l-147.1 -100.3zM271335.4 -112195.1l1163.4 2040.5l-8642.3 -5711.8l5612 -1522.8l1866.8 5194.1zM273862.1 -129433.9l-1379.7 5830.8l1341.6 2046.7l-3019.8 285.1l-5741.5 -3807.8l4766.4 -7315.4l-2403.9 -4883l4626.1 1722.2l-967.9 3871.3l2778.7 2250.1zM273191.4 -127905.2l130.3 79.5l-63.8 -290.1l-66.5 210.6zM253546.7 -154475.3l4838.7 7482.4l5111.3 -4930.3l708 1011l3013 -1039.3l681.5 1450.1l1987.5 -1510.2l1436.4 1360l-3185.2 8329.9l2177.1 3666.7l-5885.8 2690.9l-4292.5 -3889.9l-1838 5371.6l-2121.2 452.9l2999.2 8238.8l-5232.4 -2530.9l-843.4 2335l-2753.4 -5688.8l2828.8 -1296.9l-3039.6 -2049.9l5086.7 -3459.2l-4175.8 -3720.9l1300.9 -649.1l-1435 -2646l-3146 -316.1l1749.5 -3722.7l-367.8 -4381.7l4397.4 -557.5zM263175.4 -151426.5l96.6 -166.1l-102.3 62.1l5.8 104zM268184.7 -154544.4l-2424.3 2214.1l-2616.1 -1777.8l2190.2 -1753.6l2850.2 1317.3z" />
	<path id="zoomcity_85" region='2' choosen="false" d="M248390.4 -434335l14202.1 -183.4l-543.7 4087.7l5158.9 718.6l-892.8 16696.7l-1227.9 1585.6l-3368.7 6910.1l-5933.6 -1440.1l-2962.7 -3979.9l-6980.7 872.5l2497.3 -14285.5l-9210.1 -5226.6l-3735.1 -6968.6l9493.8 -2091.1l3503.1 3303.9z" />
	<path id="zoomcity_86" region='0' choosen="false" d="M211599.7 -356525.8l3137.4 -2638.7l10718.5 4718.5l1958.4 1424.6l-2738.8 4394.6l2197.2 6243.3l5198.9 3511l3402.4 1735.7l382.2 5236.2l-5374.8 6286l-4610.7 1304l-4946.5 -22.3l-3201 -6692.9l1195.7 -5936.8l16 -4982.3l-5537.9 -4649.7l1173.7 -6743l-2970.7 -3188.1z" />
	<path id="zoomcity_87" region='2' choosen="false" d="M180812.6 -508983.8l-2971.2 -4927.7l6829.6 -7799.5l4136.9 -2753.6l7498.5 3888.3l1511.3 -5153.5l11674.5 -6387.3l306.3 5993.8l3997.3 -102l1851.4 6018.6l661.5 13342.8l-6229.1 657l2825.3 6847.6l-4915.2 2830l-3379.4 -1096l-3796 5969.2l-3225.4 -1605.6l3839.6 -4982.9l-2187 -1824.9l-4827.7 2402.6l-3732 -1972.4l-112.6 3487l-3791.2 -2159.9l-2676.6 2787.1l-1712.4 -3253.5l-5308.3 2088.4l-2362.5 -3336.9l3069.3 -14.1l-26.4 -6431.1l3051.5 -2511.5z" />
	<path id="zoomcity_88" region='5' choosen="false" d="M162796.3 -200770.6l1138.8 -3352.8l3686.3 1790.1l-4846.7 9736.8l-2843 4864.8l-11447.2 1613.9l-6078.3 838l-2626.7 -2420.3l3387.2 -2761.5l-6365.8 3679.9l-827.7 -5458.7l9150.5 -15639.7l4624.7 2277.7l-4159.8 -5290.9l4172.1 -3720.4l4097 2314.7l-1414.1 2539.1l4709.5 8627.6l5643.3 361.5zM143251.8 -203570.9l9.8 -49.2l-57 -4.6l47.2 53.9zM143117.7 -201851.5l58.2 -54.6l-43.4 -10.9l-14.7 65.4z" />
	<path id="zoomcity_89" region='4' choosen="false" d="M399555.6 -352959.1l3211.7 -1933.8l7719.4 2332.3l2906.3 -2243.2l3301.8 2952.5l-1015.4 5657.1l4060.7 9276.2l-6266.7 26791l-6478.8 217.2l-1504.1 -6969.3l-3327.4 1180.4l-9409.9 -19709.6l6502.9 1103.3l2034 -2392l-3023.8 -8869.8l1289.2 -7392.4z" />
	<path id="zoomcity_90" region='9' choosen="false" d="M260392.9 -302613.9l3625.1 -5067.5l11790.2 -5480.6l625.9 4678.5l4789.5 -3186.3l5007.8 5494.9l4475.7 -2233.6l3111.9 2127.5l1724.1 5916.4l-7416.1 189.8l1537.6 4790.8l-3127.7 9630.7l-7563.2 5170.3l-2500.4 -1889l-7605.3 3124l-11486.8 -6162.9l-4327.9 -7237.9l678.4 -5610.5l4810 1430l1851.1 -5684.7z" />
	<path id="zoomcity_91" region='5' choosen="false" d="M147385.9 -136461.3l2143.3 -1972.3l-7968.9 -118.7l7541 -5349.9l1297.6 -94.2l4750.9 2158l3920.8 -9868.9l4765 -7413.2l6372.2 5581.7l128 -7340.5l4465.4 6303.2l9022.9 2072.1l3185.2 215.3l-5767.6 9833.1l-10566.9 2978.7l-981.5 6918.6l-10303.5 2850.3l-4583.5 -7484.1l-7420.3 731z" />
	<path id="zoomcity_92" region='4' choosen="false" d="M385537 -370623.8l6544.4 -6699.6l7641.1 2710.6l3338.1 -2618.3l3078.4 11143.3l-3249.6 3302l2005.9 3027.9l-2127.8 4865.1l-3211.7 1933.8l-1289.2 7392.4l3023.8 8869.8l-2034 2392l-6502.9 -1103.3l-13932.8 -10042.5l-1147.5 -17031.1l-603.1 -2856.2l8467.1 -5285.6z" />
	<path id="zoomcity_93" region='1' choosen="false" d="M304284.4 -431076.4l7700.7 -3660.7l5500.5 3512.3l488.4 7963.4l6854.3 967.5l1112.8 -5520.7l13681.1 8093.9l469.2 5386.1l5733.1 4084l9773.5 -3396.3l13061.8 6835.4l-2757.3 4414.3l3876.2 4565.4l-3241.9 2538.2l-8369.8 -5138.8l-1488.4 6366.1l-4704.5 -358.3l-5096.4 -2821.9l-14514.4 -6132.5l-5774 2360.8l-3802.1 -6394.5l-2083.4 1199.8l-5413 1827.1l-3022.2 -2882.2l5994 -6276l-5736.7 993.2l-6018.6 -4444.8l1142 -4276.4l-8235.2 1350.6l-703.9 -2886l1386.8 -3011.6l3852.8 676l334.6 -5933.6z" />
	<path id="zoomcity_94" region='4' choosen="false" d="M337736 -389175.7l1716.1 -4507.7l7425.5 -3563l5096.4 2821.9l-6083.3 16955.9l2479.5 5054.6l5519.4 -2830l1641.8 7746.1l-260.7 654.4l-684.3 10477l-8220.5 -2566.3l-3672 2023.2l-4251.5 -7300.9l-6847.3 -723.6l470.8 -6481.8l-2889.7 -1502.4l-2302.3 -2999.8l1524.1 -5756.8l9337.8 -7500.7z" />
	<path id="zoomcity_95" region='4' choosen="false" d="M370405.2 -296964l113.2 -1683.3l8240.5 443.5l6969.3 3358.6l8074 8882.3l-628.6 4977.5l-2955.8 657.8l2137.3 8795.7l-6046.7 -1683.2l-4414.8 10672.2l-3894.5 1273.2l-8017.1 -697.9l-2926.2 -12842.9l-10657 -3530.4l-3645 -2532.7l4309.4 -10383.9l5271.7 2451.2l8070.3 -8157.6z" />
	<path id="zoomcity_96" region='8' choosen="false" d="M168236.7 -361222.8l762.7 -2567.6l5370.9 -3131.1l5492.7 6140.8l5190.2 -3886.2l1206.4 4621.8l10787.5 6912.9l-6160.6 13364.7l-4740.4 -1414.1l-1902.4 4785l-4631.5 -654.8l-3193.8 -1339.8l3125.1 -5264.7l-2379.2 -8550.5l-10473 2320.8l-152.8 3493.9l-3629.5 35.5l296.6 -5113.7l1131.2 -3685.1l3899.8 -6067.7z" />
	<path id="zoomcity_97" region='4' choosen="false" d="M327973.7 -371327.7l1202.8 -1590.7l2889.7 1502.4l-470.8 6481.8l6847.3 723.6l4251.5 7300.9l712.6 5572.1l-7122.5 2792.3l502.9 2934.4l-3024 93.2l-5820.6 8911.2l-4928.9 2067.4l-1288.9 -3001.4l-2004.8 3707.1l-2098.4 4651.9l-4750.2 -2365.8l672.1 -6084.5l2393.1 -4726.5l-3103.7 -3936.2l4166.1 -5059.5l3646.1 536.6l-2691.6 -2998.8l3939 -13636.5l6081.3 -3875z" />
	<path id="zoomcity_98" region='2' choosen="false" d="M202418 -405821.2l-2918.8 -2559.7l5836.6 -2484.8l3802.3 6219.7l-2887.1 1996.8l-3178.9 -1175.7l-654.2 -1996.4z" />
	<path id="zoomcity_99" region='9' choosen="false" d="M249804.8 -321453.2l9770.6 -5876.4l5665.4 5991.4l13626.3 2018.4l-3058.9 6157.9l-11790.2 5480.6l-3625.1 5067.5l-1851.1 5684.7l-4810 -1430l-1373.4 -5208.3l-8134.2 -701.9l705.2 -11168.7l4716.8 -6242.5l158.7 227.2z" />
	<path id="zoomcity_100" region='5' choosen="false" d="M156739.8 -75917.7l8278.3 1743.4l-8945.4 4806.2l-1903.5 -4251l2570.6 -2298.7zM159120.4 -75288.9l738.4 407.2l151.2 -295.5l-889.6 -111.6zM161650.2 -73022.7l168.8 146.6l-47.8 -442.7l-121 296.1zM162043 -72851.2l-6 97.2l55.6 -32.5l-49.6 -64.7zM170730.8 -72200.1l-2248.9 4035.1l-2930.7 -3899.9l2135.5 -6082.5l3223.2 2056.3l-2611.2 1323l2432.1 2568.1zM191801.2 -79504.6l327.8 6514.6l-5432.4 396.3l126.3 -5495.3l4978.3 -1415.7zM191605.4 -78568.3l52.1 92.6l55.5 -56l-107.7 -36.5zM165398.5 -78621.5l-3559 3570.1l-3596.1 -1869.1l590.9 -5006.7l6564.3 3305.8zM201305.6 -92696l-3769.7 3463l-1013.4 -3748.9l4783.1 285.9zM190532.4 -94079l-4845.7 5126.9l-1251.3 -2805.8l-3715.4 897.5l-3711.1 -2211.8l13523.5 -1006.9zM202656 -98120.6l6739.5 4884.2l-3201.5 -1053.8l-2434.6 4309.3l929.4 -3521.1l-6011.1 -2215.2l1846.4 126.9l423.6 -2100.8l1708.4 -429.4zM173330 -99695.3l6132.5 11936.3l-7640.3 -567.6l-4768.4 -3914.4l-509.5 -6647.3l6785.7 -806.9zM177417.6 -91068.4l52.4 145.4l71 -197.6l-123.4 52.2zM187483.8 -101461l6080.8 2275.6l1600 -2198.1l63.8 4787.6l-3800 1427.6l-4049.5 -2040.7l854.8 -2156.4l-749.9 -2095.5zM184730.1 -105132.3l2395.1 5289.8l-6188.2 1567.1l-1245.8 3316.5l-67 -3268.6l-2770.5 248.6l7876.5 -7153.4zM185015.1 -102263.2l19.3 59.7l21.3 -40.8l-40.6 -18.9zM205979.5 -105952.3l-404.3 5766.3l-3580.8 -6272.1l3985.1 505.8z" />
	<path id="zoomcity_101" region='6' choosen="false" d="M204491.6 -261161.7l1394.2 6638.4l-6013.4 -2542l554.8 -5364.9l4064.4 1268.5zM229003 -292220.5l4981.8 11885.2l-2973.5 6282.8l799.3 5846.9l-7398.4 15070.5l-1339 5185.1l-1224.4 4906.4l-5717 -5642.7l-3635.4 2208.8l-295.4 7920.9l-3794.8 2817.9l-2673.9 -6242l1901 -5628.2l2774.3 -2332.7l4204 -3835.4l3325.5 888.6l3282.1 -5067.5l-8980.2 -8746.2l-8950.9 785.3l-678.1 -2783.4l5649.5 -1383.7l3371.6 -14945.8l6754 -3876.6l4435.3 1852.3l-216.7 -3263.4l6399.3 -1902.8z" />
	<path id="zoomcity_102" region='2' choosen="false" d="M202820.3 -427010.7l-1223.9 -713.8l808.7 -2284.2l9606.9 3599.1l12859.1 -746.3l-465.2 8048.8l5574.2 321.8l-746.9 5585.9l8881.9 8010.5l-1190.9 6070l-9821.4 -1519.1l-3734 -5402.1l-1953.4 3769.1l-4888.1 4160.3l-5657.2 -741l-39.7 -5900l3367.4 -3983.3l-774.7 -4201.1l-7576.6 -2424.7l2002.4 -6121.8l-5028.6 -5527.9z" />
	<path id="zoomcity_103" region='4' choosen="false" d="M545381.6 -450173.7l-2724.5 2803.8l-5595.2 -2033.7l-2123.3 -5550.1l10062.4 -3257.7l380.6 8037.7z" />
	<path id="zoomcity_104" region='0' choosen="false" d="M404133.7 -242407.1l3736.7 1710.6l2618.4 -1834l2976.6 -2232l8356 2991.3l831.2 4264.7l-361.2 4415.3l-377.3 6305.9l-3186.8 5056.1l-1855.7 -3077.6l-2603.9 -606.7l2496 1890.4l-2133.2 3502.9l-2770.1 -2796.7l2875.4 13392.6l-5283.2 3612.3l-3691.7 -6206.5l-5665 -27.3l-716.7 -5708.7l-2783.1 877.5l-5526 -6897l-10235.7 -3530.3l-2210.7 -3469.2l4419 -2744.3l-1611.4 -3918.3l3914.5 -3411.8l2452.9 1065.7l-560.3 -2008.1l1503.4 -4744.6l8580.6 -2675.1l6916.1 2403.1l-105 4399.9z" />
	<path id="zoomcity_105" region='4' choosen="false" d="M406138.9 -366087.8l-3078.4 -11143.3l-3338.1 2618.3l-7641.1 -2710.6l-1254.8 -4818.9l-5832.2 -3798.7l387.6 -5681l8984.2 -3987.3l4737.6 235.4l-1246.9 -3794.4l4009.2 -4936.3l8109.3 -3460l6113.1 9616.3l-1694.1 3129.2l869.8 15712.2l6014.1 13290.7l-6.4 7587.3l-4577.4 6377.5l-3301.8 -2952.5l-2906.3 2243.2l-7719.4 -2332.3l2127.8 -4865.1l-2005.9 -3027.9l3249.6 -3302z" />
	<path id="zoomcity_106" region='1' choosen="false" d="M277017.6 -433690.3l552.7 -7029.1l4457.5 -4640.4l2064.3 5756.3l11918.8 2681.1l1285 2235.8l-5433.4 8328.7l6847.7 3550.8l703.9 2886l8235.2 -1350.6l-1142 4276.4l-3240 3984.9l-3354.2 -2362.4l-6976.4 5181.5l-3619.6 -6924.3l-6850.6 2115.1l-269.2 7561.6l-12123.6 2415.3l-3758.6 -7991.6l892.8 -16696.7l3684.1 -7610.3l6125.7 3632z" />
	<path id="zoomcity_107" region='9' choosen="false" d="M255947.6 -405438.6l-162.8 -521.2l5933.6 1440.1l2446.2 2835.3l-6272.6 14679.6l12302.1 4973.6l-475 6382.1l-7851.6 33.1l-5049 3666.3l-5349.1 -629.4l-5982 -8580.8l-5749.8 -2185.8l-51.5 -6678.5l3825.9 -4656l6033.4 1096.6l4116.8 -2898.3l2285.5 -8956.6z" />
	<path id="zoomcity_108" region='3' choosen="false" d="M314390.3 -223326.9l10014.3 -1901.2l4917.9 3325.1l-4608.3 4792.5l5725.8 5842.4l-1937.7 3623.7l-3185.6 3020.2l-5860.1 -3028.9l-3568.5 11569.5l-7294.2 211.7l-3647.1 -10475.7l-3670.4 2284.7l-3170.8 -4322.5l9878 -3278.8l972.2 -8770l5434.5 -2892.7z" />
	<path id="zoomcity_109" region='4' choosen="false" d="M319720 -333833.4l2004.8 -3707.1l1288.9 3001.4l4928.9 -2067.4l2712.7 3676.9l2841.6 -3304.6l5420.9 3082.2l4499.6 8815.2l13069.2 -9100.5l7515.5 3995.8l5641.2 17046.2l-3760.3 4043.2l3233.2 1059.4l124 5832.8l-22304.2 -713.7l-2.4 -5830.9l-16382.6 -6996l-1422.3 2223.3l-2415.6 2213.8l-5507.7 -6973.6l-3569.9 2371.4l-1562 -1943.5l3991 -6451.9l-2443.3 -5620.6l2098.4 -4651.9z" />
	<path id="zoomcity_110" region='2' choosen="false" d="M198534.7 -433370.8l5084.8 -1465.3l-772.5 3474.5l-441.9 1352.9l-808.7 2284.2l-7610.7 5382.3l-209.6 -397.1l2799.6 -6094.8l76.8 -34.6l5.1 0l1729.2 -4306.6l147.9 -195.5z" />
	<path id="zoomcity_111" region='2' choosen="false" d="M201086.2 -468629.5l-955.2 -4734.6l8991.8 -1880.6l3736.3 2751.5l-5717.4 6495.3l-2732.4 1040.3l-3081.3 -1553.3l-241.8 -2118.7z" />
	<path id="zoomcity_112" region='2' choosen="false" d="M236324 -425643.8l2804.5 -2935.4l9210.1 5226.6l-2497.3 14285.5l6980.7 -872.5l2962.7 3979.9l162.8 521.2l-2285.5 8956.6l-4116.8 2898.3l-6033.4 -1096.6l2047 -5856.8l-7443.8 -4652l-8881.9 -8010.5l746.9 -5585.9l6344 -6858.5z" />
	<path id="zoomcity_113" region='6' choosen="false" d="M187900.5 -283737.9l-263.3 -729.8l590.3 -962.8l2008.8 -7928.4l10002 -927.7l3613.8 232.2l1605.3 5941.3l6174 3083.3l-3371.6 14945.8l-5649.5 1383.7l678.1 2783.4l-3553 1082.6l-13021.1 -3680.9l5569.4 -8866.6l-4383 -6356.1z" />
	<path id="zoomcity_114" region='1' choosen="false" d="M296447.1 -520336.4l5425.1 -13114l-3740.3 -4660.4l7004.1 -4190.2l4996 1522.1l91.5 4308.1l4134 -489.9l927.2 7259l3152.4 -398.8l1298.7 3603.2l4875.3 -2063.1l1629.3 5445.4l-1899.8 2759.8l4093.8 6384.6l-5331.5 2647.9l1940.6 5201.5l5334.5 -559.9l2410.7 4515.7l-3972.1 7074.4l1451 6227l-3575.3 3340.1l-2495.6 -2331.1l-5799 6698.2l-4675.2 -4875.3l-7098.3 6530.3l-4590.5 -9216.6l-14618.8 -4931.4l-880.3 -4939l3960 -2817.5l2763.3 -135.7l-19.6 -3601.8l4610.1 958.4l-1401.4 -16151z" />
	<path id="zoomcity_115" region='0' choosen="false" d="M142157.1 -417829.6l-2588.9 1791.8l-3167.9 -3028.8l5756.8 1237zM155536.3 -418036.6l-3422.8 4251.6l-2503.6 -1196.6l2153.3 -5506.2l3773.2 2451.3zM150992.6 -415065.4l41.1 24.1l18.5 -75l-59.5 50.9zM150371.6 -430629.5l-2176.1 1270.7l-1579.7 -2889.3l1529 -2243.3l2226.9 3861.8zM162999.5 -443087.1l-12416.6 7523.2l-6963.2 -2302.7l-364 -3589.4l5263.5 -2586l5041.7 -252.2l1652 -902.4l339.3 -2289.3l7447.4 4398.8zM149251.8 -449747.1l4092.2 1997.4l-239.8 2079.9l-3574.9 -438.2l148.2 -1677.7l-1379.2 910.5l953.5 -2872zM151354 -446455.5l-87.9 269l66.2 -120.4l21.7 -148.5zM151259.4 -446189.8l-134.2 -9.9l-180.9 2.8l315.2 7.2zM150924 -446196.3l-115.4 -68.9l79.2 59l36.2 9.9zM143754.5 -448236.2l-3388.5 1299l-1672.1 -4149.7l5060.6 2850.8zM175654.2 -454445.8l2353.6 1386.1l3697.8 -216.6l-2300.9 3037.5l-660.3 3338.2l-1594.7 3947.4l2235 1862.8l922.3 -2.8l-646.2 4122.6l-3059.9 4345.1l-6090.3 327.5l-2982.3 -3158l67.8 -1148.2l-269.3 -1221.3l-3420.2 61.2l-39.2 -2600.4l2884.6 642l-2597.1 -1429.3l1880.2 -1295.1l2466.7 -1149.9l-2527.8 -3227.7l4353.7 -1605.2l-5494.9 760.4l-833.5 -3195.4l-1820.1 -3163.6l7070.7 -5731.3l6404.1 5313.8zM134379.8 -461405.8l236.7 3357.3l-3309.5 -3585.4l3072.8 228zM145203.6 -464603l-4345.8 4490l702.1 -2801.5l-6194 -4889.8l4987.2 -4833.9l-325.8 4234.8l5176.4 3800.4zM141384.3 -477584.4l-8903.5 5030l-2792.9 -1831.9l3127.7 -5279l8568.7 2080.8zM159967.6 -455929.7l-2763 2797l-12900.6 -3662.3l3118.8 -4306.6l-1589.2 -558.6l9.1 -3835.1l-3821 -3391.8l391 -7490.3l7922.2 -4735.6l7816.5 10381.8l211.4 9448.7l1604.7 5352.8z" />
	<path id="zoomcity_116" region='6' choosen="false" d="M223073.1 -247950l1339 -5185.1l1511.8 9992.3l13500.8 7275l-5075.8 971.9l-1467.9 6114.4l-1407 1783.2l774.9 4651.5l-4309.7 2521.5l-10242.2 -1269.1l-2039.2 3382.1l-7756.2 -5444.6l2659.9 -3085.7l-2847.1 -1739.8l691.6 -7756.3l3794.8 -2817.9l295.4 -7920.9l3635.4 -2208.8l5717 5642.7l1224.4 -4906.4z" />
	<path id="zoomcity_117" region='5' choosen="false" d="M176180.6 -216690.7l3098.8 -2085.6l4869.2 -1978.5l3858.9 2770.1l4615.6 6597.2l-5301.1 8952.7l1642.8 7738.8l-3926.8 2482.2l-4570.2 755l-2579.2 -4018.8l-3425 4685.5l-6129.3 2603.2l-5559.6 -4407.4l4846.7 -9736.8l3733.9 -2718.2l6225.5 -7944.5l-1400.1 -3694.8z" />
	<path id="zoomcity_118" region='6' choosen="false" d="M246511.7 -249918l651.7 -7104.5l5108.1 2021.5l3652.8 -5126.6l7255.5 5663.4l-1849.7 2115.6l-1448.5 5039.4l-6876.5 18835.4l-3611.9 9638.5l-5187.3 -7593.2l-11325 -2353.1l1467.9 -6114.4l5075.8 -971.9l2950.8 26.3l-375.2 -7964.2l4511.4 -6112.3z" />
	<path id="zoomcity_119" region='5' choosen="false" d="M198171.5 -132005.9l6008.1 4688.9l-7572.4 2005.3l4172.4 2045.6l-2755.4 3734l2300.6 2026.4l-4229.9 2756.8l1834.2 2162.4l-1579.5 1304.3l1582.8 3224.2l-9671.4 1601.4l1091.7 3800.6l-3660.5 -3276.3l-96.4 -6066.4l3847.9 -4257.4l-3299.3 -8238.2l2696.2 -842.1l-2445.3 -10692l-5153.9 -6427.5l5767.6 -9833.1l3642 -421.4l3886.4 5412.3l2607.7 -2886.3l6205.4 1365l-3023.4 11951.4l-2155.8 4862.1z" />
	<path id="zoomcity_120" region='6' choosen="false" d="M204491.6 -261161.7l-4064.4 -1268.5l-692 -2404.2l3553 -1082.6l8950.9 -785.3l8980.2 8746.2l-3282.1 5067.5l-3325.5 -888.6l-4204 3835.4l-2774.3 2332.7l-3051.1 -3462.5l1303.6 -3451.7l-1394.2 -6638.4z" />
	<path id="zoomcity_121" region='1' choosen="false" d="M339409.9 -446318.8l1938.3 -6790.8l3103.6 3278l3398.9 -1889.4l9500.1 1188.3l3007 4436.2l3066.5 -1191.5l3006.9 -8868.3l1899.3 4425l6006.5 1935.3l1658.4 5457.6l-2828.9 4251.3l-4815.9 1125.7l-4602.7 9187l5557.4 15350.5l-645.7 7612.4l-13061.8 -6835.4l-9773.5 3396.3l-5733.1 -4084l-469.2 -5386.1l785.4 -4623l-7148.7 -11667.9l6151.1 -10307.2z" />
	<path id="zoomcity_122" region='6' choosen="false" d="M185066.8 -243416.4l-950.3 -2636.3l4329.9 -4875.5l13401.7 9893.9l3884.2 -946.5l2673.9 6242l-691.6 7756.3l2847.1 1739.8l-2659.9 3085.7l-10223.6 -5309.6l-4244.8 4149.8l652.4 4097.5l-6691.1 134.1l612.9 2100.5l-3858.9 -2770.1l-4869.2 1978.5l-741.4 -11333.3l-3838.7 -289.7l2044.6 -10391.4l8323 -2625.8z" />
	<path id="zoomcity_123" region='7' choosen="false" d="M179523.4 -7882.4l7320.4 4160.4l4060.9 429.1l25.5 4739.6l-32120.8 12370.6l-1732.4 743.6l-948.3 301.1l-8951.5 2370.7l-8505 -408.7l-9114.7 7691.2l-4895.2 -2841.3l-2229.7 1841.5l-705.1 -6293.4l8390.7 -7007.6l1141.2 -3925.4l14740.4 -6029.3l12606.6 -3102.7l4456.2 -1533.3l2742.4 -191.4l1027.2 -2170.7l2083.8 1498.2l10607.4 -2642.1z" />
	<path id="zoomcity_124" region='9' choosen="false" d="M282466.4 -415000.7l6850.6 -2115.1l3619.6 6924.3l6976.4 -5181.5l3354.2 2362.4l3240 -3984.9l6018.6 4444.8l5736.7 -993.2l-5994 6276l3022.2 2882.2l607.8 3712l-2796.9 -1808.3l-4831.9 7057.4l4468.3 10337.4l-2076.3 9778.4l-2484.1 3351.5l287.4 3329.3l-7454.6 -1919.2l-8657.5 -2566.4l3124.9 -6317.7l-2614.6 -4439.7l4030 -141.8l-467.5 -13636.5l-3532.7 -4400.1l-3733.6 2007.9l-3251.6 -6468.4l-3710.5 -929.3l269.2 -7561.6z" />
	<path id="zoomcity_125" region='9' choosen="false" d="M250696.9 -370698.6l772.4 -1880.4l5349.1 629.4l-1195.6 9658.9l3701.7 3366.2l-3763.3 2778.5l-5265 -8252.2l-2450.5 -3133.4l2851.1 -3167.1z" />
	<path id="zoomcity_126" region='5' choosen="false" d="M116064.8 -90863.5l423.5 4364.2l-6483.4 -1420.5l-201.7 -2785.5l6261.6 -158.2zM131137 -121504.1l12047.9 9495.2l-4294.9 10575.8l-3995.7 -.8l1767.4 3617.5l-2165.8 1315.8l-2121.4 -3685.8l-7885.1 5128.8l-4621.3 -998.5l1231.3 -2831.1l-1168.9 -54.1l-281.9 764.8l-905.9 25l-2567.3 -4517.3l9433 -10563.7l1297.9 2083.9l1929 -5035.9l4576.3 937.6l-2274.7 -6257.2zM123543.9 -110508.2l-29.5 424.3l128.2 -205.3l-98.7 -219zM134463.3 -99337.6l16.6 1.9l86.3 -19.8l-102.9 17.9z" />
	<path id="zoomcity_127" region='6' choosen="false" d="M231011.3 -274052.5l2973.5 -6282.8l5103.2 -775.9l1960.9 5076.9l6199.6 -229.2l8675.8 16135.9l-3652.8 5126.6l-5108.1 -2021.5l-651.7 7104.5l-4511.4 6112.3l375.2 7964.2l-2950.8 -26.3l-13500.8 -7275l-1511.8 -9992.3l7398.4 -15070.5l-799.3 -5846.9z" />
	<path id="zoomcity_128" region='3' choosen="false" d="M300737.9 -203972.3l538.4 -90.6l3670.4 -2284.7l3647.1 10475.7l7294.2 -211.7l8587.4 6903.2l-1683.1 7491.4l-12581.6 1458.7l-2211.5 7222.4l-3579.3 -7164l-5004 1639.9l-3763.5 -3357.4l-3646.7 2236.7l-1345.4 -4789.5l-4865.3 -12.4l-4816.2 -7823l6970.7 -2293.2l8239 -9749.3l4549.4 347.9z" />
	<path id="zoomcity_129" region='9' choosen="false" d="M234245.8 -384389.9l758.8 -4161.3l4681.3 -1473l51.5 6678.5l5749.8 2185.8l5982 8580.8l-772.4 1880.4l-2851.1 3167.1l2450.5 3133.4l-10196.1 3263.5l-2704.8 -750.5l-11634.3 -15077.2l591.3 -3968.9l7893.5 -3458.7z" />
	<path id="zoomcity_130" region='3' choosen="false" d="M335714.2 -238666.2l2396 -4901.5l1015.1 6502.4l5228.8 4281.8l-1600.8 12505.3l6764.8 4506.6l916.9 6385.5l-7208.8 -607.6l-12786.3 -1274.4l-5725.8 -5842.4l4608.3 -4792.5l-4917.9 -3325.1l-1039.7 -10300l763.9 70.5l11585.4 -3208.6z" />
	<path id="zoomcity_131" region='3' choosen="false" d="M354522.1 -200792.3l4039.6 14089.5l4797.2 1020.3l4581.1 4788l-1806.9 1626l-2801.9 2274.5l-286.5 -3824.7l-8501.6 1952.3l-736 -5843.7l-2038.1 3517.6l-1751 -3519l-3226.8 291.5l-2132.8 -5670l2734.1 -1474.2l-3042.6 374.1l-1893.7 2811.2l5702.2 10667.9l-1783.9 1478.7l2851.9 706.2l-5659.5 1861.4l1949.5 -2039.7l-3090.7 375.4l1672.9 -2501.3l-4080.8 -3205.5l-1611.2 2445.2l-6175.6 -879.2l2649.1 2929.8l-487.5 368.1l-462.6 -678.1l-688.1 1154.2l-1984.9 12.7l-687.5 1576.6l-876.7 150.4l366.2 -3368.6l-3083 -24l-4183.7 -4340.2l1683.1 -7491.4l3013.1 -1231.2l3300.3 4409.3l4827.3 -4218l-34.9 -7962.8l9132.1 105.6l-1946.6 -9638l459.7 -2278.3l7208.8 607.6l9684.5 2634.9l-5597.4 5958.9z" />
	<path id="zoomcity_132" region='8' choosen="false" d="M208103.3 -376976.6l-1587.6 -4896.1l4054.8 -3415l15190.5 8325.3l11634.3 15077.2l-7483.7 584.8l-4456 6854.2l-10718.5 -4718.5l-3137.4 2638.7l2970.7 3188.1l-1173.7 6743l-3511 -4262.3l-9105 315.5l9780.9 -12178.2l-2458.2 -14256.9z" />
	<path id="zoomcity_133" region='1' choosen="false" d="M216315.9 -519304.7l-668.7 -901.8l-1851.4 -6018.6l-3997.3 102l-306.3 -5993.8l3360.8 -4708.1l14245 1909l8015 -2465l8834 3903l9328.1 -4185.4l-1091.7 7835.5l-7784 7989.9l-1043.7 7292.9l-5665.7 1967l-9583.9 2264.9l-3909.2 -3342.2l540.1 -6377.1l-5352.7 5037.6l-3068.5 -4309.8z" />
	<path id="zoomcity_134" region='4' choosen="false" d="M376603 -258690.2l1396.2 -2579.6l3894.5 -1273.2l-3789.3 10449.1l7241.6 11245.9l-3914.5 3411.8l-2169 1357.6l-5413.5 -4197.4l-4357.8 3206l-7677.4 6039.5l-8839.3 -3090.4l-8620.4 1337.4l-5228.8 -4281.8l-1015.1 -6502.4l849.9 -3819.6l6507.2 -2590.7l2771 3627.6l4961 -4291.2l6529 4710.1l2086.4 -4716l12327.1 -1666.8l2461.3 -6376z" />
	<path id="zoomcity_135" region='4' choosen="false" d="M377526.6 -343173.4l1293.8 -2277.4l13932.8 10042.5l9409.9 19709.6l-6823.8 10829.6l-9797 -5225.8l1558.4 4278.3l-8341.9 7612.7l-8240.5 -443.5l-1278.1 -2812.5l-124 -5832.8l-3233.2 -1059.4l3760.3 -4043.2l6787.9 -5580.3l1095.3 -25197.8z" />
	<path id="zoomcity_136" region='8' choosen="false" d="M179171.4 -335114l440.9 -1937.5l4631.5 654.8l1902.4 -4785l4740.4 1414.1l-1356.7 5266.7l2871.2 6204.5l5233.4 -1251.7l4104.1 3178.1l-3987.1 11404.7l-10161.6 1302l-1238.3 -7002.2l-4885.5 3851.2l-6237.6 -2543.3l-239.9 -283.4l-4360.3 -9433.7l5655.8 -1045.6l2887.4 -4993.7z" />
	<path id="zoomcity_137" region='9' choosen="false" d="M240100.2 -361134.7l10196.1 -3263.5l5265 8252.2l3763.3 -2778.5l9480.1 13875.4l-2043.9 2077.4l-9011.3 -2273l-2877.6 5685.2l-4327.6 2807.1l1035.9 4439.6l-5407.7 7592.7l-491.2 2130.9l-1885.4 -3273.9l-480.5 -4981.6l-2756.7 3066.9l-4538 -600.7l-164.8 -3522.1l-382.2 -5236.2l-3402.4 -1735.7l-5198.9 -3511l-2197.2 -6243.3l2738.8 -4394.6l-1958.4 -1424.6l4456 -6854.2l7483.7 -584.8l2704.8 750.5zM235284.2 -351761l236.9 4467.7l-2172.4 -289.4l246.3 4641.5l5833.6 -2117l4216 2703.4l6238.7 -5706.2l-6548.7 -10080l-8050.5 6380z" />
	<path id="zoomcity_138" region='9' choosen="false" d="M235521.1 -347293.3l-236.9 -4467.7l8050.5 -6380l6548.7 10080l-6238.7 5706.2l-4216 -2703.4l-5833.6 2117l-246.3 -4641.5l2172.4 289.4z" />
	<path id="zoomcity_139" region='1' choosen="false" d="M246929.5 -495948.4l-665 -3956.3l4461 -4367.6l-382.7 -4989.8l6671.7 3202l203.5 3465.5l8408.1 -1526.7l4019.7 4981.9l5626.8 -2965.7l-378.9 -3691.4l4350.1 67.5l2909.2 4030.4l1589.4 -2834.7l3324.2 4140.2l3427.9 -1013.5l-3960 2817.5l880.3 4939l-4784 13476.5l-3759.7 -4014.1l-1760.4 2974.1l-4852.4 -214.4l3300.5 7839.8l-2266 2468.1l-7526.3 -130.1l-11810.6 7745.8l-4683.7 -5757.3l-4614.1 560.7l3251.3 -4487.6l-1744.9 -7872.7l7907.8 -8882.5l-1652.6 -4953.1l-5490.3 -1051.8z" />
	<path id="zoomcity_140" region='9' choosen="false" d="M265087.1 -411429.8l1227.9 -1585.6l3758.6 7991.6l12123.6 -2415.3l3710.5 929.3l3251.6 6468.4l3733.6 -2007.9l3532.7 4400.1l467.5 13636.5l-4030 141.8l2614.6 4439.7l-3124.9 6317.7l8657.5 2566.4l-3584 3869.9l-2956.4 -2221.8l-6892.8 228.2l-2890.6 -7885.9l-14492.5 -5474.3l-12302.1 -4973.6l6272.6 -14679.6l-2446.2 -2835.3l3368.7 -6910.1z" />
	<path id="zoomcity_141" region='4' choosen="false" d="M332422.2 -288466.4l1670.2 -4189.7l6577.5 1396.8l658.5 5670.4l5460.1 -1964.9l1050.3 7401.6l-2153 876.1l-1122.2 1623.5l-4348.5 2681.4l-2406.2 -1674l-2069.3 10004.2l-4631.4 -5762l-5328.4 6747.4l271.6 -6224l-4532.9 -1675.4l-5419.6 -9720.9l301.1 -5335.5l6175.8 3282.9l3273.1 -3545.2l5860 2416.7l713.2 -2009.4z" />
	<path id="zoomcity_142" region='1' choosen="false" d="M373164.2 -425451.2l5274.8 -2740.8l-1331.1 14509.7l8349.2 5364.6l789.8 6408.2l-2934.3 3909l-10761.3 -3043.2l-2772.7 3211.8l-3876.2 -4565.4l2757.3 -4414.3l645.7 -7612.4l3858.8 -11027.2z" />
	<path id="zoomcity_143" region='8' choosen="false" d="M145874.9 -343991.9l3460.5 19376.8l-718.4 2450.7l-5050.4 -1259.3l-694.6 -3408.9l-2859 337l-1844.7 -14578.4l4538.3 -4888.4l3168.2 1970.5zM139420.2 -333629.8l139.2 79.4l46.3 -99.6l-185.5 20.2zM139711.7 -333475.4l-123.3 121.6l306.1 -105l-182.8 -16.6zM144561.3 -323480.3l68.5 105.3l48.2 -60.9l-116.7 -44.4zM145051.8 -323175.2l46.4 131.7l54.6 -174.7l-101 43zM138038.7 -386654.7l2399.3 9794.3l-1686.1 887.5l-1570.6 3404.9l-164.1 1094.7l1992.2 427.4l-77.9 559.7l-3158.2 1741.1l910.1 2189.6l3857.9 -1829.4l970 10426.5l762 11342.9l-5663.7 3868l-1776.1 -16160.3l-6653.5 6021.1l-5924 662.3l3145 -5441.7l4977.8 -391.4l-5028.2 -4066l-2082.4 410l927.4 2580.6l-2658.6 2588.4l932.8 -4704l-2753 -2675.4l4146.1 -2504.1l167.1 -5601.1l3178.1 3567.5l1683.8 -10014l4492.2 -1048.2l-3146.8 3837l4759.2 443.2l3042.4 -11411.4zM138411.6 -382533.2l-115.1 686.1l588.7 -960.9l-473.6 274.8zM138944.6 -379508.8l100.3 155.3l47.3 -116.4l-147.6 -38.9zM138915.2 -379157l60.4 35.9l10 -111.6l-70.4 75.7zM139696 -378420.8l73 106.3l-21.1 -175.8l-51.9 69.5zM139755 -378154.6l56.3 119.7l31.8 -87.2l-88.1 -32.5z" />
	<path id="zoomcity_144" region='3' choosen="false" d="M336219.7 -147003.7l1995.9 4600.8l-3911 1157.1l-44.1 -6293.8l1959.2 536zM336815.1 -144189.6l4.9 222.7l208.8 -161.5l-213.7 -61.2zM315736.8 -147317.9l-2383.3 2604.4l-3783.5 -2530.4l3418.9 -2656.1l2747.9 2582zM312694.7 -150308.9l-4250.5 2237.2l-1475 -3116.6l5725.4 879.4zM331196.3 -160157l-1319.9 6516.5l1672.9 -4483.3l3486.2 2634.6l-4993.8 5736.4l1308.1 6482.2l-3423 1648.2l-1809.9 -5514.8l-4547.6 -1544.7l2186.6 -1487.5l2998.3 3205l1687.4 -2144.6l-3281.1 -1864.3l4223 -1992.2l-2836.7 -103.6l-820.7 -2493.2l282.4 893.9l-383.9 176.4l-410.4 -357.1l428.1 1704.6l-2393.6 -1951.5l-53 1607.6l-1816.4 -280.4l-2847.3 -2754.7l5260.5 -886.8l-1063 -3250.2l6641.7 -3586.8l2327.6 -473.5l-1909 1941.7l1406.4 2622.1zM323434.7 -158546l22.1 101l134.5 -99.3l-156.6 -1.7zM330252.3 -156847l145.1 114.6l-91.1 -138.2l-54 23.6zM329822.8 -155956.1l226.3 503.4l56.6 -791.1l-282.8 287.7zM331329.6 -156022.6l65.6 -196.8l-137.2 51l71.6 145.8zM332018.3 -156915.2l54.5 -70.8l-108.9 25.1l54.4 45.7zM331750 -157448.4l-49.3 -155.7l33.8 185.2l15.6 -29.5zM331691 -157679.4l-14.1 -20.3l4.8 41.6l9.3 -21.2z" />
	<path id="zoomcity_145" region='2' choosen="false" d="M170700.6 -489825.5l263.2 -5138.9l-4157.5 -564.8l-13 -2729.6l7924.9 -1768.2l2362.5 3336.9l5308.3 -2088.4l1712.4 3253.5l2676.6 -2787.1l3791.2 2159.9l112.6 -3487l3732 1972.4l4827.7 -2402.6l2187 1824.9l-3839.6 4982.9l-5994 13433.3l2140.8 8042.4l-3843.8 3334.8l-7752.2 -2090l-2158.2 3634.4l-8576.1 450.8l-808.2 -9374.3l103.3 -13995.2z" />
	<path id="zoomcity_146" region='1' choosen="false" d="M335804.3 -478357l3471.5 -2647.5l2589.5 5909.8l8540.4 -311l5284.9 10216.3l-7839.9 13468.3l-3398.9 1889.4l-3103.6 -3278l-1938.3 6790.8l-6151.1 10307.2l7148.7 11667.9l-785.4 4623l-13681.1 -8093.9l-1112.8 5520.7l-6854.3 -967.5l-488.4 -7963.4l-5500.5 -3512.3l-2064.3 -7946.5l5098.1 -6547.5l-4323.1 -10075.3l4982 -8311.5l9143.6 1608.1l3599.5 -4777.7l6091.9 -177.6l1291.5 -7391.8z" />
	<path id="zoomcity_147" region='2' choosen="false" d="M206251.1 -402649.2l2887.1 -1996.8l1692.3 -105.9l39.7 5900l-1569.6 6233.9l4248.7 629l76.8 3524.5l-3055.6 3176.7l-4054.8 3415l-14719.1 3709.5l-7390 -10025.8l-4281 -757.8l1729.6 -1118.4l4451.5 -412.1l5167.2 -6406.6l8022.4 402.7l264.4 -5886.3l3311.6 -1457.4l3178.9 1175.7z" />
	<path id="zoomcity_148" region='2' choosen="false" d="M219384.4 -514994.9l5352.7 -5037.6l-540.1 6377.1l3909.2 3342.2l9583.9 -2264.9l66.1 77.5l1291.5 7053.5l-10607.5 18542.6l-3191.5 1655.6l-1838.6 9889.8l-1434.7 1611.6l-9116.2 1254.6l-3736.3 -2751.5l416.3 -8900.1l4082.5 -3982l-5632.1 -8402.4l4915.2 -2830l-2825.3 -6847.6l6229.1 -657l-661.5 -13342.8l668.7 901.8l3068.5 4309.8z" />
	<path id="zoomcity_149" region='4' choosen="false" d="M385728.3 -294845.2l-6969.3 -3358.6l8341.9 -7612.7l-1558.4 -4278.3l9797 5225.8l6823.8 -10829.6l3327.4 -1180.4l1504.1 6969.3l6478.8 -217.2l-84.6 8083l5649.2 9998.2l-5271.7 6086.3l3231.1 2258.1l-1438.9 1978.8l5884.3 1929.7l8132.4 -10492.5l3195.4 4327.9l-5497.1 13371.9l186.2 9460.6l-5998 -513.8l-2544.5 -3967.9l-1571.9 2971.7l-4353.4 -718.8l-7960.4 -23521.9l-8485.4 5903.6l-2744 -2990.9l-8074 -8882.3zM427370.7 -287039.6l28.1 -45.1l-35.4 -14.6l7.3 59.7zM427360.2 -287126.6l18.5 -46.1l-42.4 26.1l23.9 20zM428070.2 -287587.4l11.7 -2.4l-17.3 -22.4l5.5 24.8z" />
	<path id="zoomcity_150" region='2' choosen="false" d="M212409.4 -444813.3l305.6 -1277.6l34.5 5.6l3401.7 -3215.4l-1671.2 -3736.7l3139.2 -1240.5l7736.4 8542.6l-4349.6 4294.9l-5060.2 191l-3636.3 -40.2l99.9 -3523.6z" />
	<path id="zoomcity_151" region='3' choosen="false" d="M270646.6 -161985.2l292.4 -3758.5l-1066.5 -7360.1l-4485.9 -3049.1l-8556.4 -11280.7l-4387.6 -13783.6l3891.4 -2616.2l6226.8 1420.4l1520 6030l6467.2 4947.2l6210.2 -814.1l1811.7 -3685.1l2408.8 3657.2l4816.2 7823l-5716.5 1120l4052.9 14601.8l-1801.4 6593.3l-11683.4 154.4z" />
	<path id="zoomcity_152" region='3' choosen="false" d="M328502.3 -207644.4l1937.7 -3623.7l12786.3 1274.4l-459.7 2278.3l1946.6 9638l-9132.1 -105.6l34.9 7962.8l-4827.3 4218l-3300.3 -4409.3l-3013.1 1231.2l-8587.4 -6903.2l3568.5 -11569.5l5860.1 3028.9l3185.6 -3020.2z" />
	<path id="zoomcity_153" region='3' choosen="false" d="M259881.6 -247309.2l1448.5 -5039.4l14124 12067.8l3862.9 -1128.7l-3696.1 9612l1933.6 1497.9l-1239 2201.4l-9931.5 23654.1l-3823.2 2031.2l-6226.8 -1420.4l-939.8 -3763.2l5621.5 -8631.1l-3271.3 -1704.8l-798.6 -8476l-3940.8 -2065.6l6876.5 -18835.4z" />
	<path id="zoomcity_154" region='5' choosen="false" d="M148484.6 -186117.6l11447.2 -1613.9l2843 -4864.8l5559.6 4407.4l161 8584.6l-2919.9 3107.1l-2701.1 -1216.2l413.6 11296.5l-5299 2280.9l-6736.9 -5496.2l-847.3 -5532.4l-1933 -1347.9l2643.3 -1471.1l-8708.8 -7296l6078.3 -838z" />
	<path id="zoomcity_155" region='3' choosen="false" d="M295277.7 -249583.5l-1677.8 -5131l4878.9 -4798.7l6701.7 5892.1l3745.7 9762.6l-4004.9 3781.6l13278.5 -181.1l4445.1 1346.1l719.8 3383.9l1039.7 10300l-10014.3 1901.2l-5434.5 2892.7l-972.2 8770l-9878 3278.8l-2521.7 -5242l-6051.6 -3026.3l-2539.5 -8090.7l3852.7 -13220.7l8049 -5420.3l-3616.8 -6197.9z" />
	<path id="zoomcity_156" region='5' choosen="false" d="M143856.8 -115043.4l-531.8 -3294.3l-1863.5 345.5l-790.5 -1262.2l-1851.4 -373.9l-1861.8 702.2l-5003.4 -5077.8l3164.3 -1908.9l-3477.9 -3866.2l2920.2 -10459.5l4486.9 2276.4l-384.7 1904.6l1771.1 1996.8l-1197.6 2035.2l2841.7 8925.7l7547 2538.7l3115.5 -3299.1l-2962.5 311l-3412.9 -6287l-3714.9 1109l2485.3 -4026.6l-2078.7 -1955.4l-312.2 2292.7l-2532.4 988.3l-206.4 -1582.8l2778.1 -2340l3402.7 3369l3893.4 -1700.8l-2267.6 3762.2l3465.7 2636.1l13898.4 1725.4l-5787.1 -4149.2l10303.5 -2850.3l3258.6 1042.7l-3138.1 9911.3l931.3 13141l4815.6 2146.1l-10832.3 5796.7l-1071.5 9682.7l-4309 -807.1l-3252.6 3280.9l-340.2 -7614.7l-4991.6 306.9l4732.6 -6252.6l-5727.3 -3835.9l2075.4 -157.2l-1483.1 -9093.2l-3262.8 -2602.1l-3241.2 2569.7zM133249.2 -123680.2l21.8 -65.8l-41.4 27.8l19.7 37.9zM135606.5 -120515.9l565.8 -854.5l-556.2 174.2l-9.6 680.3zM136268.7 -120910.9l68.7 -38.8l-62.8 -.1l-5.9 38.8zM143629.8 -116940.9l69 -112.5l-108.1 39.1l39.1 73.4z" />
	<path id="zoomcity_157" region='8' choosen="false" d="M153674.5 -335151.3l-3697 -9304.9l3276.6 -918.5l-1086.8 -3955.6l4004.4 1482l7034 -3621.8l-296.6 5113.7l3629.5 -35.5l152.8 -3493.9l10473 -2320.8l2379.2 8550.5l-3125.1 5264.7l3193.8 1339.8l-440.9 1937.5l-2887.4 4993.7l-5655.8 1045.6l-6372.3 -1716l-1040.8 -3493l-9062.1 -1028.1l-478.6 160.6z" />
	<path id="zoomcity_158" region='1' choosen="false" d="M326692.2 -485523.9l3575.3 -3340.1l9395 3313.1l-386.7 4546.5l-3471.5 2647.5l-1291.5 7391.8l-6091.9 177.6l-3599.5 4777.7l-9143.6 -1608.1l-4982 8311.5l-10499.2 -5600.2l-10337.6 7658.3l-4179.5 -2729.2l-10688.6 9538.7l-4985.2 -3534.6l-7531.1 -49.6l-8957.9 -7111.6l-4242 2533.2l-2108.1 -1977.1l2105.9 -8682.8l4683.7 5757.3l11810.6 -7745.8l7526.3 130.1l2266 -2468.1l-3300.5 -7839.8l4852.4 214.4l1760.4 -2974.1l3759.7 4014.1l4784 -13476.5l14618.8 4931.4l4590.5 9216.6l7098.3 -6530.3l4675.2 4875.3l5799 -6698.2l2495.6 2331.1z" />
	<path id="zoomcity_159" region='2' choosen="false" d="M170647.4 -410441.3l2578.8 -2029.6l-2924.6 555.5l1086.6 -5845.8l9577.9 3184.3l1621.8 -5841.5l3920.3 1279.1l6980.8 -511.9l306.4 1970.8l3721.7 3595.3l8329.3 -1276l7576.6 2424.7l774.7 4201.1l-3367.4 3983.3l-1692.3 105.9l-3802.3 -6219.7l-5836.6 2484.8l2918.8 2559.7l654.2 1996.4l-3311.6 1457.4l-264.4 5886.3l-8022.4 -402.7l-5167.2 6406.6l-4451.5 412.1l-4669.6 -3022.7l1397 -8644.2l4945.3 -2833.6l-3031.1 -1036.6l1450 -4234.5l-10169.1 8705.8l553 -6249.2l-3551.2 1463.8l1868 -4524.8z" />
	<path id="zoomcity_160" region='5' choosen="false" d="M206059.2 -186250.7l4511.7 -2139l6545.4 -1880.6l826.7 8771.7l-2043.2 17149.4l-7845.5 4654.5l-32.8 7048.3l-4670.8 3827.1l-6205.4 -1365l-2607.7 2886.3l-3886.4 -5412.3l-3642 421.4l-3185.2 -215.3l4652.6 -2973.2l1605.4 -19987.1l2478.4 -1481l2971.5 2054.2l4172.6 -4607.2l1175 -2130.5l7184.3 894.8l-2004.6 -5516.6z" />
	<path id="zoomcity_161" region='1' choosen="false" d="M237756.1 -512500.7l-66.1 -77.5l5665.7 -1967l1043.7 -7292.9l7784 -7989.9l1091.7 -7835.5l14621.9 -1584.6l4104.2 2941.6l6352.5 25780.9l890.2 4796.6l-4350.1 -67.5l378.9 3691.4l-5626.8 2965.7l-4019.7 -4981.9l-8408.1 1526.7l-203.5 -3465.5l-6671.7 -3202l382.7 4989.8l-4461 4367.6l-4865.5 -568.2l-2351.5 -4974.4l-1291.5 -7053.5z" />
	<path id="zoomcity_162" region='1' choosen="false" d="M289859 -457248.3l10337.6 -7658.3l10499.2 5600.2l4323.1 10075.3l-5098.1 6547.5l2064.3 7946.5l-7700.7 3660.7l-334.6 5933.6l-3852.8 -676l-1386.8 3011.6l-6847.7 -3550.8l5433.4 -8328.7l-1285 -2235.8l-11918.8 -2681.1l-2064.3 -5756.3l-4457.5 4640.4l-552.7 7029.1l-6125.7 -3632l-3817 -7552.3l7915.9 -5564.2l10688.6 -9538.7l4179.5 2729.2z" />
</g>

<circle id="zoom-stroke" class="zoom_circle" cx="100000" cy="0" r="50000"
		 stroke="gray" stroke-width="5000" fill="none"/>
</g>


</svg>